<svg width="500" height="500" viewBox="0 0 500 500" fill="none" xmlns="http://www.w3.org/2000/svg">
<path d="M449.9 398.49H416.78V398.74H449.9V398.49Z" fill="#EBEBEB"/>
<path d="M331.22 401.21H322.53V401.46H331.22V401.21Z" fill="#EBEBEB"/>
<path d="M415.78 389.21H396.59V389.46H415.78V389.21Z" fill="#EBEBEB"/>
<path d="M95.65 390.89H52.46V391.14H95.65V390.89Z" fill="#EBEBEB"/>
<path d="M110.89 390.89H104.56V391.14H110.89V390.89Z" fill="#EBEBEB"/>
<path d="M225.15 395.11H131.47V395.36H225.15V395.11Z" fill="#EBEBEB"/>
<path d="M500 382.4H0V382.65H500V382.4Z" fill="#EBEBEB"/>
<path d="M403.45 219.1C417.12 208.45 434.74 206.76 448.45 196.1L430.1 177.8C416.43 188.45 398.82 190.14 385.1 200.8L403.45 219.1Z" fill="#F5F5F5"/>
<path d="M393.22 198.23C403.65 192.36 415.76 190.45 426.1 184.43C428.326 185.535 430.889 185.753 433.27 185.04L440.95 192.71C440.389 193.594 440.042 194.597 439.936 195.638C439.831 196.679 439.969 197.731 440.34 198.71C430 204.71 417.88 206.63 407.46 212.51C405.237 211.395 402.67 211.177 400.29 211.9L392.61 204.22C393.168 203.337 393.514 202.336 393.62 201.297C393.726 200.257 393.589 199.208 393.22 198.23Z" fill="#E6E6E6"/>
<path d="M410.56 200.66C413.48 203.58 418.61 204.94 422.07 203.74C425.53 202.54 425.92 199.15 423 196.23C420.08 193.31 415 192 411.49 193.16C407.98 194.32 407.64 197.74 410.56 200.66Z" fill="#FAFAFA"/>
<path d="M390.14 103.91C399.47 111.75 401.63 124.55 394.9 132.51L392.56 135.29C385.86 143.29 372.88 143.29 363.56 135.49C354.24 127.69 352.08 114.85 358.8 106.88L361.14 104.09C367.84 96.14 380.81 96.07 390.14 103.91Z" fill="#E0E0E0"/>
<path d="M394.884 132.488C401.58 124.53 399.451 111.721 390.129 103.876C380.807 96.032 367.822 96.1235 361.126 104.081C354.43 112.038 356.559 124.847 365.881 132.692C375.203 140.536 388.188 140.445 394.884 132.488Z" fill="#F5F5F5"/>
<path d="M391.961 130.028C397.494 123.453 395.731 112.864 388.024 106.378C380.316 99.8924 369.582 99.9649 364.049 106.54C358.516 113.115 360.279 123.704 367.987 130.19C375.695 136.676 386.428 136.603 391.961 130.028Z" fill="#E0E0E0"/>
<path d="M386.06 124.23L388.06 126.44L386.67 127.7L384.67 125.49C383.087 126.807 381.099 127.541 379.04 127.57L378 124.92C379.726 124.932 381.41 124.384 382.8 123.36L379.22 119.36C376.86 120.51 374.22 121.6 371.72 118.84C369.9 116.84 369.57 113.92 371.95 111.25L369.95 109L371.34 107.75L373.34 109.96C374.641 108.916 376.212 108.264 377.87 108.08L378.95 110.75C377.619 110.913 376.347 111.393 375.24 112.15L378.86 116.15C381.22 114.99 383.86 113.85 386.37 116.6C388.14 118.62 388.44 121.52 386.06 124.23ZM377 117L373.83 113.45C373.395 113.889 373.145 114.478 373.132 115.096C373.119 115.714 373.344 116.313 373.76 116.77C374.63 117.73 375.75 117.52 377 117ZM384.27 118.75C383.41 117.75 382.27 117.96 380.94 118.55L384.1 122.03C385.1 120.75 385.05 119.61 384.28 118.75H384.27Z" fill="#F5F5F5"/>
<path d="M437.26 268.21C443.59 280.88 439.97 295.54 429.12 300.93L425.33 302.81C414.51 308.21 400.61 302.3 394.33 289.62C388.05 276.94 391.63 262.28 402.48 256.89L406.27 255C417.05 249.6 430.92 255.53 437.26 268.21Z" fill="#E0E0E0"/>
<path d="M429.111 300.934C439.932 295.542 443.579 280.888 437.258 268.204C430.937 255.521 417.041 249.61 406.22 255.002C395.4 260.395 391.753 275.048 398.074 287.732C404.395 300.416 418.291 306.327 429.111 300.934Z" fill="#F5F5F5"/>
<path d="M427.127 296.962C436.068 292.505 439.082 280.394 433.857 269.909C428.632 259.425 417.147 254.539 408.205 258.995C399.264 263.451 396.25 275.563 401.475 286.047C406.7 296.531 418.185 301.418 427.127 296.962Z" fill="#E0E0E0"/>
<path d="M423.51 288L424.62 291.29L422.56 291.99L421.46 288.72C419.151 289.401 416.679 289.263 414.46 288.33L414.57 285.02C416.405 285.832 418.454 286.028 420.41 285.58L418.41 279.69C415.41 279.83 412.01 279.76 410.64 275.69C409.64 272.69 410.64 269.45 414.39 267.69L413.28 264.37L415.34 263.68L416.43 266.95C418.299 266.429 420.279 266.46 422.13 267.04L422.06 270.38C420.565 269.948 418.989 269.872 417.46 270.16L419.46 276.11C422.52 275.97 425.9 275.98 427.28 280.11C428.32 283 427.3 286.21 423.51 288ZM417.23 276.09L415.48 270.85C414.815 271.117 414.277 271.628 413.977 272.279C413.678 272.93 413.639 273.671 413.87 274.35C414.32 275.79 415.61 276.08 417.23 276.09ZM424.18 281.33C423.7 279.9 422.4 279.56 420.71 279.57L422.48 284.75C424.16 283.85 424.61 282.6 424.18 281.32V281.33Z" fill="#F5F5F5"/>
<path d="M152.07 118.6L156.37 120.75C168.69 126.87 172.8 143.5 165.62 157.89C158.44 172.28 142.68 178.98 130.4 172.89L126.1 170.76C113.78 164.64 109.67 148.01 116.86 133.62C124.05 119.23 139.79 112.48 152.07 118.6Z" fill="#E0E0E0"/>
<path d="M161.332 155.756C168.506 141.362 164.363 124.73 152.08 118.609C139.797 112.487 124.024 119.193 116.85 133.587C109.677 147.982 113.819 164.613 126.103 170.734C138.386 176.856 154.159 170.15 161.332 155.756Z" fill="#F5F5F5"/>
<path d="M157.475 153.833C163.404 141.935 159.981 128.189 149.828 123.129C139.675 118.069 126.637 123.612 120.708 135.51C114.778 147.408 118.202 161.155 128.355 166.215C138.508 171.274 151.545 165.731 157.475 153.833Z" fill="#E0E0E0"/>
<path d="M134.74 156.59L133 160.12L130.78 159.02L132.53 155.52C130.144 154.219 128.279 152.135 127.25 149.62L130 147C130.827 149.126 132.318 150.928 134.25 152.14L137.38 145.83C134.82 143.49 132.19 140.75 134.38 136.37C135.98 133.15 139.38 131.37 143.81 132.96L145.59 129.4L147.8 130.49L146 134C147.916 135.081 149.478 136.692 150.5 138.64L147.76 141.27C146.907 139.719 145.701 138.389 144.24 137.39L141.07 143.77C143.64 146.11 146.34 148.84 144.16 153.22C142.62 156.42 139.22 158.19 134.74 156.59ZM139.26 141.99L142.06 136.38C141.312 136.058 140.469 136.037 139.706 136.32C138.943 136.603 138.318 137.169 137.96 137.9C137.16 139.41 138 140.68 139.26 142V141.99ZM140.63 151.77C141.39 150.23 140.63 148.92 139.26 147.58L136.52 153.15C138.59 153.78 139.95 153.15 140.64 151.77H140.63Z" fill="#F5F5F5"/>
<path d="M109.86 263.71L113.39 262.53C123.51 259.13 134.89 266 138.84 277.83C142.79 289.66 137.84 301.99 127.74 305.37L124.21 306.55C114.09 309.95 102.72 303.08 98.77 291.25C94.82 279.42 99.76 267.09 109.86 263.71Z" fill="#E0E0E0"/>
<path d="M124.21 306.564C134.302 303.185 139.273 290.856 135.312 279.025C131.351 267.194 119.959 260.342 109.867 263.721C99.7751 267.1 94.8048 279.429 98.7656 291.26C102.726 303.091 114.118 309.943 124.21 306.564Z" fill="#F5F5F5"/>
<path d="M122.966 302.847C131.309 300.054 135.418 289.863 132.145 280.085C128.871 270.307 119.454 264.645 111.112 267.438C102.769 270.231 98.6594 280.422 101.933 290.2C105.206 299.978 114.623 305.64 122.966 302.847Z" fill="#E0E0E0"/>
<path d="M121.19 294.06L122.19 296.96L120.38 297.57L119.38 294.69C117.354 295.28 115.188 295.16 113.24 294.35L113.33 291.44C114.947 292.151 116.75 292.319 118.47 291.92L116.73 286.74C114.04 286.86 111.1 286.8 109.89 283.21C109.01 280.56 109.89 277.71 113.2 276.21L112.2 273.28L114.01 272.68L115.01 275.56C116.649 275.107 118.384 275.131 120.01 275.63L119.95 278.58C118.631 278.199 117.241 278.131 115.89 278.38L117.65 283.62C120.34 283.5 123.32 283.51 124.53 287.11C125.42 289.64 124.52 292.48 121.19 294.06ZM115.66 283.57L114.12 279C113.552 279.233 113.091 279.669 112.828 280.224C112.565 280.78 112.519 281.413 112.7 282C113.09 283.3 114.23 283.56 115.66 283.57ZM121.77 288.18C121.35 286.92 120.21 286.62 118.77 286.64L120.32 291.2C121.8 290.41 122.2 289.3 121.82 288.2L121.77 288.18Z" fill="#F5F5F5"/>
<path d="M80.89 229.09C106.1 232.22 126.12 248.73 151.33 251.86V213.86C126.12 210.73 106.1 194.22 80.89 191.09V229.09Z" fill="#F5F5F5"/>
<path d="M91.91 196.84C108.81 201.56 123.34 212.15 140.31 216.62C141.467 220.078 143.899 222.964 147.11 224.69V240.61C145.626 240.947 144.24 241.622 143.061 242.583C141.881 243.544 140.94 244.765 140.31 246.15C123.31 241.67 108.81 231.09 91.91 226.37C90.7554 222.908 88.3184 220.02 85.1 218.3V202.38C86.5856 202.045 87.9734 201.37 89.1548 200.409C90.3363 199.448 91.2793 198.226 91.91 196.84Z" fill="#E6E6E6"/>
<path d="M107.36 217.34C107.36 223.4 111.28 230.12 116.11 232.46C120.94 234.8 124.85 231.7 124.85 225.65C124.85 219.6 120.94 212.87 116.11 210.53C111.28 208.19 107.36 211.28 107.36 217.34Z" fill="#FAFAFA"/>
<path d="M176.18 88.58C186.83 102.25 188.52 119.87 199.18 133.58L217.49 115.27C206.84 101.6 205.15 83.98 194.49 70.27L176.18 88.58Z" fill="#F5F5F5"/>
<path d="M197.05 78.35C202.92 88.77 204.83 100.89 210.85 111.23C209.74 113.455 209.522 116.02 210.24 118.4L202.57 126.07C201.685 125.511 200.682 125.166 199.641 125.062C198.599 124.957 197.548 125.097 196.57 125.47C190.57 115.13 188.64 103.01 182.77 92.58C183.88 90.3552 184.098 87.7904 183.38 85.41L191.06 77.74C191.943 78.2983 192.944 78.644 193.983 78.7499C195.023 78.8557 196.072 78.7188 197.05 78.35Z" fill="#E6E6E6"/>
<path d="M194.62 95.69C191.7 98.61 190.34 103.69 191.54 107.19C192.74 110.69 196.12 111.05 199.04 108.13C201.96 105.21 203.32 100.13 202.12 96.62C200.92 93.11 197.54 92.76 194.62 95.69Z" fill="#FAFAFA"/>
<path d="M250 427.01C357.082 427.01 443.89 421.942 443.89 415.69C443.89 409.438 357.082 404.37 250 404.37C142.918 404.37 56.11 409.438 56.11 415.69C56.11 421.942 142.918 427.01 250 427.01Z" fill="#F5F5F5"/>
<path d="M386 266.21C384 264.51 382 262.77 380 261L374.08 255.7C373.008 254.787 372.299 253.521 372.08 252.13C371.933 250.995 372.067 249.841 372.47 248.77C373.064 247.233 373.928 245.814 375.02 244.58C376.9 242.427 379.067 240.543 381.46 238.98L383.71 241.62C382.084 243.505 380.603 245.511 379.28 247.62C378.723 248.484 378.311 249.433 378.06 250.43C377.99 250.8 378.06 251.04 378.06 251.01C378.06 250.98 378 250.75 378.06 250.78L379.67 251.95L381.28 253.17C382.35 253.99 383.41 254.83 384.44 255.67C386.53 257.35 388.56 259.08 390.55 260.87L386 266.21Z" fill="#803E3C"/>
<path d="M389.82 268.07C386.26 268.59 378.04 260.25 378.04 260.25L383.67 253.8C386.42 255.548 388.972 257.59 391.28 259.89C394.56 263.31 393.72 267.5 389.82 268.07Z" fill="#05577D"/>
<path opacity="0.7" d="M389.82 268.07C386.26 268.59 378.04 260.25 378.04 260.25L383.67 253.8C386.42 255.548 388.972 257.59 391.28 259.89C394.56 263.31 393.72 267.5 389.82 268.07Z" fill="white"/>
<path d="M380.69 240.48L381.63 235.93L385.73 239.05C385.73 239.05 384.65 243.05 382.61 242.4L380.69 240.48Z" fill="#7F3E3B"/>
<path d="M384.77 232.58L387.38 236.45L385.73 239.05L381.63 235.93L384.77 232.58Z" fill="#7F3E3B"/>
<path opacity="0.2" d="M388.27 263.56C386.61 264.98 382.89 263.7 380.69 262.74C383.28 265.04 387.16 268.07 389.48 268.07C389.75 265.57 389.86 262.22 388.27 263.56Z" fill="black"/>
<path d="M366.16 405.16L361.57 403.49L364.1 392.44L368.69 394.1L366.16 405.16Z" fill="#7F3E3B"/>
<path d="M402.34 411.25H397.48L396.09 399.97H400.96L402.34 411.25Z" fill="#7F3E3B"/>
<path d="M396.84 410.69H402.77C402.867 410.688 402.963 410.719 403.039 410.78C403.116 410.84 403.169 410.925 403.19 411.02L404.19 415.35C404.213 415.455 404.211 415.564 404.186 415.668C404.161 415.772 404.112 415.869 404.044 415.952C403.975 416.035 403.889 416.101 403.791 416.146C403.694 416.19 403.587 416.212 403.48 416.21C401.57 416.21 400.18 416.07 397.77 416.07C396.29 416.07 391.83 416.22 389.77 416.22C387.71 416.22 387.44 414.22 388.28 414.02C392.02 413.2 394.84 412.07 396.03 411.02C396.136 410.914 396.263 410.83 396.402 410.773C396.541 410.717 396.69 410.688 396.84 410.69Z" fill="#05577D"/>
<path d="M361.41 402.56L366.62 403.68C366.714 403.702 366.798 403.754 366.859 403.828C366.921 403.902 366.956 403.994 366.96 404.09L367.03 408.52C367.033 408.627 367.011 408.733 366.966 408.831C366.922 408.928 366.855 409.014 366.772 409.081C366.689 409.149 366.592 409.197 366.487 409.221C366.383 409.245 366.274 409.245 366.17 409.22C364.3 408.79 361.6 408.09 359.24 407.59C356.48 406.99 354.77 406.44 351.53 405.74C349.53 405.32 349.43 403.23 350.29 403.22C354.19 403.22 356.55 403.97 360.18 402.68C360.571 402.526 360.997 402.484 361.41 402.56Z" fill="#05577D"/>
<path opacity="0.2" d="M364.1 392.44L362.8 398.14L367.39 399.8L368.69 394.11L364.1 392.44Z" fill="black"/>
<path opacity="0.2" d="M400.96 399.98H396.09L396.81 405.79H401.68L400.96 399.98Z" fill="black"/>
<path d="M416.58 263.13C414.52 268.503 412.849 274.017 411.58 279.63C410.67 283.32 409.96 286.86 409.4 290.08C408.08 297.63 407.55 303.44 407.09 305.37L381.54 300.2C381.35 272.2 389.76 258.95 389.76 258.95C391.839 258.84 393.923 258.857 396 259L397.34 259.12C401 259.642 404.626 260.376 408.2 261.32C408.88 261.49 409.57 261.68 410.2 261.88C412.283 262.497 414.419 262.915 416.58 263.13Z" fill="#05577D"/>
<path opacity="0.7" d="M416.58 263.13C414.52 268.503 412.849 274.017 411.58 279.63C410.67 283.32 409.96 286.86 409.4 290.08C408.08 297.63 407.55 303.44 407.09 305.37L381.54 300.2C381.35 272.2 389.76 258.95 389.76 258.95C391.839 258.84 393.923 258.857 396 259L397.34 259.12C401 259.642 404.626 260.376 408.2 261.32C408.88 261.49 409.57 261.68 410.2 261.88C412.283 262.497 414.419 262.915 416.58 263.13Z" fill="white"/>
<path d="M397.71 264.43C396.71 266.36 390.71 290.2 389.14 295.36C389.33 296.51 389.58 297.67 389.88 298.84C390.7 297.84 391.57 296.84 392.47 295.89C393.57 290.89 397.79 267.09 398.9 264.61L397.71 264.43Z" fill="#05577D"/>
<path d="M397.68 265.92L397.26 263.34L399.14 262.94L400.28 263.99L397.68 265.92Z" fill="#05577D"/>
<path d="M409.51 248.86C408.15 252.22 406.23 258.49 408.23 261.32C406.935 262.221 405.46 262.834 403.907 263.115C402.355 263.396 400.759 263.34 399.23 262.95C396.23 262.28 396.49 260.15 397.38 259.12C401.46 258.97 401.91 256.06 401.76 253.21L409.51 248.86Z" fill="#7F3E3B"/>
<path d="M399.14 262.93C399.14 262.93 399.98 264.62 401.02 266.33C403.22 265.7 408.42 263.87 408.79 261.23C408.635 260.637 408.282 260.115 407.79 259.75C405.097 261.27 402.176 262.344 399.14 262.93Z" fill="white"/>
<path d="M399.14 262.93C397.983 263.555 396.916 264.336 395.97 265.25C394.76 263.96 396.59 259.3 397.24 258.88C397.886 258.589 398.606 258.509 399.3 258.65C399.3 258.65 397 261.89 399.14 262.93Z" fill="white"/>
<path opacity="0.2" d="M406.34 250.64L401.75 253.21C401.811 253.875 401.811 254.545 401.75 255.21C403.28 255.3 405.64 254.08 406.1 252.55C406.298 251.934 406.38 251.286 406.34 250.64Z" fill="black"/>
<path d="M400.65 236.71C399.32 238.16 397.98 241.78 400.89 241.71C403.8 241.64 402.93 234.22 400.65 236.71Z" fill="#263238"/>
<path d="M411.82 244.71C410.04 249.2 409.23 251.92 406.15 253.49C401.52 255.86 396.56 251.86 396.96 246.92C397.32 242.47 400.16 235.92 405.24 235.56C406.363 235.491 407.486 235.708 408.503 236.19C409.52 236.673 410.398 237.405 411.055 238.319C411.712 239.233 412.127 240.298 412.261 241.416C412.395 242.534 412.243 243.667 411.82 244.71Z" fill="#7F3E3B"/>
<path d="M401.87 238.48C398.87 236.97 397.87 232.77 402.87 231.69L403.21 231.62C403.474 231.588 403.741 231.609 403.997 231.681C404.252 231.754 404.491 231.877 404.698 232.042C404.906 232.208 405.078 232.413 405.206 232.647C405.333 232.88 405.413 233.136 405.44 233.4C405.457 233.499 405.484 233.596 405.52 233.69C406.37 232.891 407.467 232.408 408.63 232.32C408.903 232.312 409.175 232.364 409.427 232.471C409.679 232.578 409.905 232.738 410.089 232.94C410.273 233.142 410.411 233.382 410.494 233.642C410.577 233.903 410.603 234.178 410.57 234.45C410.533 234.641 410.539 234.838 410.587 235.027C410.636 235.216 410.725 235.392 410.849 235.542C410.974 235.692 411.13 235.813 411.306 235.895C411.483 235.978 411.675 236.021 411.87 236.02C414.48 236.09 417.53 238.02 416.01 240.62C418.22 243.39 414.77 247.23 409.89 247.62C408.56 244.94 410.71 240.97 410.71 240.97C407.631 240.717 404.629 239.871 401.87 238.48Z" fill="#263238"/>
<path d="M415.31 240.72C415.586 240.701 415.853 240.616 416.089 240.473C416.326 240.329 416.524 240.131 416.668 239.895C416.812 239.659 416.897 239.392 416.917 239.116C416.936 238.84 416.889 238.564 416.78 238.31C418.45 239.7 417.23 241 415.31 240.72Z" fill="#263238"/>
<path d="M414.85 241.06C415.11 240.964 415.389 240.932 415.664 240.966C415.938 241 416.201 241.1 416.429 241.256C416.658 241.413 416.845 241.623 416.976 241.867C417.106 242.111 417.176 242.383 417.18 242.66C418.13 240.7 416.49 240 414.85 241.06Z" fill="#263238"/>
<path d="M412.34 249.11C411.987 249.599 411.54 250.012 411.025 250.324C410.509 250.637 409.936 250.843 409.34 250.93C407.75 251.16 407.15 249.68 407.75 248.28C408.35 246.88 409.75 245.38 411.28 245.79C411.612 245.884 411.916 246.059 412.164 246.299C412.412 246.539 412.597 246.836 412.702 247.165C412.807 247.494 412.829 247.844 412.765 248.183C412.702 248.523 412.556 248.841 412.34 249.11Z" fill="#7F3E3B"/>
<path d="M361.45 396.45L369.22 399.27C369.22 399.27 375.29 372.55 378.51 357.74C379.948 351.878 381.717 346.102 383.81 340.44C386.75 332.12 390.27 323.17 393.11 316.17C396.11 308.8 398.34 303.6 398.34 303.6L381.54 300.2C381.54 300.2 368.73 337.08 365.85 351.65C362.86 366.81 361.45 396.45 361.45 396.45Z" fill="#263238"/>
<path opacity="0.6" d="M383.81 340.44C386.75 332.12 390.27 323.17 393.11 316.17L391.81 312.17C387 316.6 384 331.92 383.81 340.44Z" fill="black"/>
<path d="M390.61 302C390.61 302 387.61 344 387.43 358.33C387.23 373.98 394.54 404.62 394.54 404.62H403.46C403.46 404.62 399.9 376.97 401.09 361.47C402.41 344.14 407.09 305.34 407.09 305.34L390.61 302Z" fill="#263238"/>
<path d="M393.48 404.86H403.98L403.95 401.72L392.99 401.08L393.48 404.86Z" fill="#263238"/>
<path d="M360.41 396.36L369.72 399.58L370.73 396.58L360.56 392.88L360.41 396.36Z" fill="#263238"/>
<path d="M404.46 243.65C404.34 244.03 404.04 244.26 403.8 244.18C403.56 244.1 403.46 243.73 403.58 243.36C403.7 242.99 403.99 242.75 404.24 242.83C404.49 242.91 404.58 243.28 404.46 243.65Z" fill="#263238"/>
<path d="M400.25 242.24C400.13 242.61 399.83 242.84 399.59 242.76C399.35 242.68 399.25 242.31 399.37 241.94C399.49 241.57 399.78 241.33 400.03 241.41C400.28 241.49 400.37 241.86 400.25 242.24Z" fill="#263238"/>
<path d="M401.53 242.87C400.708 243.819 399.759 244.65 398.71 245.34C398.912 245.599 399.166 245.812 399.455 245.967C399.744 246.122 400.063 246.215 400.39 246.24L401.53 242.87Z" fill="#630F0F"/>
<path d="M406.2 242.73C406.16 242.725 406.122 242.708 406.092 242.681C406.061 242.655 406.04 242.619 406.03 242.58C405.943 242.301 405.792 242.046 405.589 241.836C405.386 241.626 405.136 241.466 404.86 241.37C404.831 241.363 404.803 241.35 404.778 241.332C404.754 241.314 404.734 241.291 404.719 241.265C404.704 241.239 404.694 241.21 404.691 241.179C404.688 241.149 404.691 241.119 404.7 241.09C404.714 241.032 404.75 240.982 404.801 240.951C404.851 240.919 404.912 240.908 404.97 240.92C405.32 241.037 405.637 241.234 405.896 241.496C406.155 241.759 406.348 242.079 406.46 242.43C406.479 242.487 406.475 242.549 406.449 242.604C406.423 242.658 406.377 242.7 406.32 242.72C406.283 242.738 406.24 242.741 406.2 242.73Z" fill="#263238"/>
<path d="M398.91 240.17C398.865 240.162 398.823 240.141 398.79 240.11C398.75 240.064 398.728 240.006 398.728 239.945C398.728 239.884 398.75 239.826 398.79 239.78C399.043 239.512 399.356 239.308 399.705 239.186C400.053 239.064 400.425 239.028 400.79 239.08C400.848 239.094 400.899 239.13 400.933 239.18C400.966 239.23 400.979 239.291 400.97 239.35C400.965 239.38 400.954 239.409 400.938 239.435C400.922 239.46 400.9 239.483 400.875 239.499C400.849 239.516 400.821 239.528 400.79 239.533C400.76 239.538 400.73 239.537 400.7 239.53C400.412 239.492 400.12 239.525 399.848 239.626C399.576 239.728 399.333 239.894 399.14 240.11C399.114 240.145 399.077 240.169 399.036 240.18C398.994 240.191 398.949 240.188 398.91 240.17Z" fill="#263238"/>
<path d="M395.23 411.54C394.898 411.561 394.568 411.473 394.29 411.29C394.203 411.216 394.136 411.121 394.094 411.015C394.052 410.909 394.037 410.794 394.05 410.68C394.051 410.613 394.069 410.548 394.102 410.49C394.135 410.432 394.183 410.384 394.24 410.35C394.78 410.08 396.36 411.04 396.54 411.15C396.552 411.168 396.558 411.189 396.558 411.21C396.558 411.231 396.552 411.252 396.54 411.27C396.536 411.291 396.526 411.31 396.512 411.326C396.498 411.342 396.48 411.353 396.46 411.36C396.057 411.463 395.645 411.524 395.23 411.54ZM394.5 410.54C394.451 410.529 394.399 410.529 394.35 410.54C394.35 410.54 394.28 410.54 394.28 410.67C394.269 410.748 394.279 410.827 394.307 410.9C394.334 410.974 394.38 411.039 394.44 411.09C394.983 411.344 395.604 411.377 396.17 411.18C395.66 410.858 395.093 410.637 394.5 410.53V410.54Z" fill="#05577D"/>
<path d="M396.48 411.37H396.42C395.92 411.1 394.93 410.03 395.03 409.49C395.046 409.406 395.091 409.33 395.156 409.276C395.222 409.221 395.305 409.191 395.39 409.19C395.479 409.176 395.569 409.181 395.655 409.205C395.742 409.229 395.822 409.272 395.89 409.33C396.313 409.888 396.557 410.561 396.59 411.26C396.6 411.277 396.605 411.296 396.605 411.315C396.605 411.334 396.6 411.353 396.59 411.37H396.48ZM395.48 409.37H395.42C395.27 409.37 395.26 409.46 395.26 409.49C395.2 409.81 395.83 410.62 396.33 411C396.291 410.442 396.085 409.909 395.74 409.47C395.666 409.413 395.573 409.385 395.48 409.39V409.37Z" fill="#05577D"/>
<path d="M360.8 403.11C360 403.11 358.59 402.99 358.16 402.41C358.097 402.327 358.055 402.23 358.038 402.127C358.021 402.025 358.028 401.919 358.06 401.82C358.077 401.759 358.109 401.704 358.152 401.658C358.196 401.613 358.25 401.579 358.31 401.56C358.96 401.36 360.67 402.74 360.87 402.9C360.884 402.919 360.891 402.942 360.891 402.965C360.891 402.988 360.884 403.011 360.87 403.03C360.867 403.049 360.859 403.066 360.847 403.08C360.834 403.094 360.818 403.105 360.8 403.11ZM358.41 401.78C358.386 401.789 358.364 401.804 358.346 401.823C358.329 401.842 358.317 401.865 358.31 401.89C358.289 401.956 358.284 402.026 358.296 402.094C358.308 402.162 358.337 402.226 358.38 402.28C358.988 402.718 359.733 402.923 360.48 402.86C359.89 402.334 359.179 401.963 358.41 401.78Z" fill="#05577D"/>
<path d="M360.8 403.11C360.788 403.117 360.774 403.121 360.76 403.121C360.746 403.121 360.732 403.117 360.72 403.11C360.2 402.73 359.27 401.46 359.46 400.94C359.51 400.82 359.63 400.68 359.95 400.71C360.182 400.74 360.393 400.858 360.54 401.04C360.867 401.652 360.993 402.352 360.9 403.04C360.898 403.061 360.891 403.082 360.879 403.1C360.866 403.117 360.85 403.131 360.83 403.14L360.8 403.11ZM359.8 400.92C359.7 400.92 359.68 400.98 359.67 401C359.55 401.31 360.16 402.29 360.67 402.77C360.723 402.212 360.608 401.652 360.34 401.16C360.234 401.027 360.079 400.941 359.91 400.92H359.8Z" fill="#05577D"/>
<path opacity="0.2" d="M413.6 265.92L410.16 267.37V269.54C410.16 269.54 410.76 273.92 412.63 275.54C413.39 272.63 414.26 269.54 415.27 266.64C414.731 266.36 414.173 266.12 413.6 265.92Z" fill="black"/>
<path d="M414.32 264.44C415.72 264.22 417.23 264.02 418.67 263.76C420.11 263.5 421.57 263.27 422.98 262.97C424.33 262.707 425.665 262.373 426.98 261.97C427.484 261.799 427.979 261.598 428.46 261.37C428.506 261.334 428.556 261.304 428.61 261.28C428.54 261.358 428.477 261.442 428.42 261.53C428.28 261.81 428.36 261.77 428.42 261.64C428.519 261.136 428.556 260.623 428.53 260.11C428.514 259.441 428.46 258.773 428.37 258.11C428.22 256.7 427.95 255.26 427.68 253.8C427.41 252.34 427.09 250.88 426.74 249.41C426.39 247.94 426.06 246.41 425.74 245.01L428.99 243.78C429.72 245.19 430.34 246.61 430.99 248.05C431.64 249.49 432.15 250.96 432.68 252.45C433.224 253.971 433.684 255.52 434.06 257.09C434.26 257.928 434.413 258.776 434.52 259.63C434.666 260.624 434.683 261.632 434.57 262.63C434.465 263.433 434.196 264.205 433.78 264.9C433.627 265.15 433.449 265.385 433.25 265.6C433.06 265.81 432.97 265.87 432.83 266.01C432.59 266.233 432.336 266.44 432.07 266.63C431.244 267.194 430.363 267.673 429.44 268.06C427.881 268.705 426.277 269.233 424.64 269.64C421.543 270.445 418.391 271.02 415.21 271.36L414.32 264.44Z" fill="#803E3C"/>
<path d="M411.46 270.83C414.3 273 424.67 270.76 424.67 270.76L423 261.81C419.88 262.073 416.791 262.618 413.77 263.44C408.91 264.83 408 268.21 411.46 270.83Z" fill="#05577D"/>
<path opacity="0.7" d="M411.46 270.83C414.3 273 424.67 270.76 424.67 270.76L423 261.81C419.88 262.073 416.791 262.618 413.77 263.44C408.91 264.83 408 268.21 411.46 270.83Z" fill="white"/>
<path d="M429.47 244.89L429.82 240.18L424.23 242.3C424.23 242.3 424.83 246.37 427.03 246.3L429.47 244.89Z" fill="#7F3E3B"/>
<path d="M427.67 236.95L423.13 238.93L424.23 242.3L429.82 240.18L427.67 236.95Z" fill="#7F3E3B"/>
<path d="M399.4 247.86C400.833 247.754 402.274 247.791 403.7 247.97C403.466 248.515 403.054 248.964 402.53 249.243C402.006 249.521 401.403 249.612 400.82 249.5C400.615 249.498 400.413 249.452 400.227 249.365C400.041 249.279 399.875 249.154 399.741 248.999C399.607 248.844 399.507 248.663 399.448 248.466C399.39 248.27 399.373 248.063 399.4 247.86Z" fill="white"/>
<path d="M218.6 114.22H230.17L248.51 320.71H236.94C234.31 320.661 231.788 319.651 229.851 317.872C227.913 316.093 226.693 313.666 226.42 311.05L209.79 123.89C209.653 122.66 209.781 121.414 210.163 120.237C210.546 119.06 211.175 117.978 212.008 117.063C212.842 116.148 213.861 115.421 214.998 114.931C216.134 114.441 217.362 114.198 218.6 114.22Z" fill="#05577D"/>
<path d="M366.69 320.71H240.37C237.421 320.668 234.592 319.541 232.421 317.546C230.25 315.55 228.89 312.825 228.6 309.89L212.43 125.05C212.278 123.671 212.421 122.276 212.851 120.957C213.28 119.638 213.986 118.425 214.921 117.4C215.856 116.376 216.998 115.562 218.272 115.013C219.547 114.465 220.923 114.195 222.31 114.22H348.62C351.567 114.275 354.393 115.407 356.563 117.402C358.733 119.397 360.098 122.118 360.4 125.05L376.57 309.89C376.721 311.268 376.576 312.662 376.146 313.98C375.716 315.298 375.01 316.509 374.075 317.533C373.14 318.557 371.998 319.369 370.725 319.917C369.452 320.465 368.076 320.735 366.69 320.71Z" fill="#05577D"/>
<path opacity="0.5" d="M366.69 320.71H240.37C237.421 320.668 234.592 319.541 232.421 317.546C230.25 315.55 228.89 312.825 228.6 309.89L212.43 125.05C212.278 123.671 212.421 122.276 212.851 120.957C213.28 119.638 213.986 118.425 214.921 117.4C215.856 116.376 216.998 115.562 218.272 115.013C219.547 114.465 220.923 114.195 222.31 114.22H348.62C351.567 114.275 354.393 115.407 356.563 117.402C358.733 119.397 360.098 122.118 360.4 125.05L376.57 309.89C376.721 311.268 376.576 312.662 376.146 313.98C375.716 315.298 375.01 316.509 374.075 317.533C373.14 318.557 371.998 319.369 370.725 319.917C369.452 320.465 368.076 320.735 366.69 320.71Z" fill="white"/>
<path opacity="0.2" d="M241.63 297.12H365.36L349.71 121.03H225.98L241.63 297.12Z" fill="black"/>
<path d="M247.04 294.71H370.77L349.71 121.03H225.98L247.04 294.71Z" fill="#05577D"/>
<path opacity="0.8" d="M247.04 294.71H370.77L349.71 121.03H225.98L247.04 294.71Z" fill="white"/>
<path d="M342.12 169.1H264.72C264.285 169.09 263.869 168.923 263.548 168.628C263.228 168.334 263.026 167.933 262.98 167.5C262.957 167.296 262.978 167.089 263.042 166.893C263.105 166.698 263.209 166.518 263.347 166.366C263.485 166.214 263.654 166.092 263.842 166.01C264.031 165.928 264.234 165.887 264.44 165.89H341.84C342.278 165.898 342.698 166.066 343.021 166.362C343.344 166.659 343.546 167.064 343.59 167.5C343.611 167.704 343.589 167.911 343.524 168.106C343.46 168.301 343.355 168.48 343.216 168.631C343.077 168.783 342.907 168.903 342.718 168.983C342.529 169.064 342.325 169.104 342.12 169.1Z" fill="#263238"/>
<path d="M339.71 178.21H251.86C251.423 178.202 251.004 178.034 250.683 177.737C250.362 177.44 250.162 177.035 250.12 176.6C250.095 176.396 250.115 176.189 250.178 175.993C250.241 175.797 250.345 175.617 250.483 175.466C250.622 175.314 250.792 175.193 250.981 175.113C251.17 175.033 251.374 174.994 251.58 175H339.43C339.866 175.005 340.285 175.172 340.606 175.467C340.927 175.762 341.128 176.166 341.17 176.6C341.194 176.805 341.175 177.012 341.112 177.208C341.049 177.405 340.945 177.585 340.807 177.738C340.668 177.89 340.499 178.011 340.31 178.093C340.12 178.174 339.916 178.214 339.71 178.21Z" fill="#263238"/>
<path d="M343.72 187.31H252.66C252.223 187.305 251.803 187.139 251.48 186.844C251.157 186.549 250.954 186.145 250.91 185.71C250.887 185.505 250.908 185.297 250.972 185.101C251.036 184.905 251.141 184.724 251.28 184.572C251.419 184.42 251.59 184.299 251.779 184.217C251.969 184.136 252.174 184.096 252.38 184.1H343.44C343.877 184.108 344.296 184.276 344.617 184.573C344.938 184.87 345.138 185.275 345.18 185.71C345.204 185.914 345.185 186.121 345.122 186.317C345.059 186.513 344.955 186.693 344.817 186.844C344.678 186.996 344.508 187.117 344.319 187.197C344.13 187.277 343.925 187.316 343.72 187.31Z" fill="#263238"/>
<path d="M333.27 196.42H253.46C253.022 196.412 252.602 196.244 252.279 195.948C251.956 195.651 251.754 195.246 251.71 194.81C251.689 194.607 251.711 194.401 251.775 194.207C251.839 194.012 251.943 193.834 252.081 193.683C252.219 193.531 252.387 193.411 252.575 193.33C252.763 193.248 252.965 193.207 253.17 193.21H333C333.436 193.218 333.853 193.385 334.174 193.679C334.495 193.974 334.696 194.377 334.74 194.81C334.763 195.015 334.742 195.223 334.678 195.419C334.614 195.615 334.509 195.796 334.37 195.948C334.231 196.1 334.06 196.221 333.871 196.303C333.681 196.384 333.476 196.424 333.27 196.42Z" fill="#263238"/>
<path d="M345.31 205.53H267.91C267.472 205.522 267.052 205.354 266.729 205.058C266.406 204.761 266.204 204.356 266.16 203.92C266.139 203.715 266.161 203.508 266.226 203.313C266.29 203.117 266.395 202.938 266.534 202.785C266.673 202.633 266.842 202.512 267.031 202.431C267.22 202.349 267.424 202.307 267.63 202.31H345C345.438 202.318 345.858 202.486 346.181 202.782C346.503 203.079 346.706 203.484 346.75 203.92C346.772 204.123 346.752 204.328 346.69 204.522C346.628 204.716 346.525 204.895 346.39 205.047C346.254 205.199 346.087 205.32 345.901 205.403C345.715 205.487 345.514 205.53 345.31 205.53Z" fill="#263238"/>
<path d="M342.09 214.63H255.09C254.653 214.623 254.234 214.456 253.912 214.161C253.59 213.867 253.386 213.464 253.34 213.03C253.317 212.825 253.338 212.617 253.402 212.421C253.466 212.225 253.571 212.044 253.71 211.892C253.849 211.74 254.02 211.619 254.209 211.537C254.399 211.456 254.604 211.416 254.81 211.42H341.81C342.248 211.428 342.668 211.596 342.991 211.892C343.314 212.189 343.516 212.594 343.56 213.03C343.581 213.234 343.559 213.441 343.494 213.636C343.43 213.831 343.325 214.01 343.186 214.161C343.047 214.313 342.877 214.433 342.688 214.513C342.499 214.594 342.295 214.634 342.09 214.63Z" fill="#263238"/>
<path d="M346.9 223.74H255.9C255.462 223.732 255.042 223.564 254.719 223.268C254.396 222.971 254.194 222.566 254.15 222.13C254.127 221.926 254.148 221.719 254.212 221.523C254.275 221.328 254.379 221.148 254.517 220.996C254.655 220.844 254.824 220.722 255.012 220.64C255.201 220.558 255.404 220.517 255.61 220.52H346.67C347.108 220.528 347.528 220.696 347.851 220.992C348.174 221.289 348.376 221.694 348.42 222.13C348.444 222.339 348.421 222.552 348.354 222.751C348.288 222.951 348.178 223.134 348.033 223.288C347.889 223.441 347.712 223.561 347.517 223.639C347.321 223.717 347.11 223.752 346.9 223.74Z" fill="#263238"/>
<path d="M341.27 232.84H256.64C256.204 232.835 255.785 232.668 255.464 232.373C255.143 232.078 254.942 231.674 254.9 231.24C254.876 231.035 254.895 230.828 254.958 230.632C255.021 230.435 255.125 230.255 255.263 230.102C255.402 229.95 255.571 229.829 255.76 229.747C255.95 229.666 256.154 229.626 256.36 229.63H341C341.438 229.638 341.858 229.806 342.181 230.102C342.504 230.399 342.706 230.804 342.75 231.24C342.773 231.446 342.752 231.654 342.687 231.85C342.623 232.047 342.517 232.227 342.376 232.379C342.236 232.53 342.064 232.65 341.873 232.73C341.682 232.809 341.477 232.847 341.27 232.84Z" fill="#263238"/>
<g opacity="0.3">
<path d="M342.12 169.1H264.72C264.285 169.09 263.869 168.923 263.548 168.628C263.228 168.334 263.026 167.933 262.98 167.5C262.957 167.296 262.978 167.089 263.042 166.893C263.105 166.698 263.209 166.518 263.347 166.366C263.485 166.214 263.654 166.092 263.842 166.01C264.031 165.928 264.234 165.887 264.44 165.89H341.84C342.278 165.898 342.698 166.066 343.021 166.362C343.344 166.659 343.546 167.064 343.59 167.5C343.611 167.704 343.589 167.911 343.524 168.106C343.46 168.301 343.355 168.48 343.216 168.631C343.077 168.783 342.907 168.903 342.718 168.983C342.529 169.064 342.325 169.104 342.12 169.1Z" fill="white"/>
<path d="M339.71 178.21H251.86C251.423 178.202 251.004 178.034 250.683 177.737C250.362 177.44 250.162 177.035 250.12 176.6C250.095 176.396 250.115 176.189 250.178 175.993C250.241 175.797 250.345 175.617 250.483 175.466C250.622 175.314 250.792 175.193 250.981 175.113C251.17 175.033 251.374 174.994 251.58 175H339.43C339.866 175.005 340.285 175.172 340.606 175.467C340.927 175.762 341.128 176.166 341.17 176.6C341.194 176.805 341.175 177.012 341.112 177.208C341.049 177.405 340.945 177.585 340.807 177.738C340.668 177.89 340.499 178.011 340.31 178.093C340.12 178.174 339.916 178.214 339.71 178.21Z" fill="white"/>
<path d="M343.72 187.31H252.66C252.223 187.305 251.803 187.139 251.48 186.844C251.157 186.549 250.954 186.145 250.91 185.71C250.887 185.505 250.908 185.297 250.972 185.101C251.036 184.905 251.141 184.724 251.28 184.572C251.419 184.42 251.59 184.299 251.779 184.217C251.969 184.136 252.174 184.096 252.38 184.1H343.44C343.877 184.108 344.296 184.276 344.617 184.573C344.938 184.87 345.138 185.275 345.18 185.71C345.204 185.914 345.185 186.121 345.122 186.317C345.059 186.513 344.955 186.693 344.817 186.844C344.678 186.996 344.508 187.117 344.319 187.197C344.13 187.277 343.925 187.316 343.72 187.31Z" fill="white"/>
<path d="M333.27 196.42H253.46C253.022 196.412 252.602 196.244 252.279 195.948C251.956 195.651 251.754 195.246 251.71 194.81C251.689 194.607 251.711 194.401 251.775 194.207C251.839 194.012 251.943 193.834 252.081 193.683C252.219 193.531 252.387 193.411 252.575 193.33C252.763 193.248 252.965 193.207 253.17 193.21H333C333.436 193.218 333.853 193.385 334.174 193.679C334.495 193.974 334.696 194.377 334.74 194.81C334.763 195.015 334.742 195.223 334.678 195.419C334.614 195.615 334.509 195.796 334.37 195.948C334.231 196.1 334.06 196.221 333.871 196.303C333.681 196.384 333.476 196.424 333.27 196.42Z" fill="white"/>
<path d="M345.31 205.53H267.91C267.472 205.522 267.052 205.354 266.729 205.058C266.406 204.761 266.204 204.356 266.16 203.92C266.139 203.715 266.161 203.508 266.226 203.313C266.29 203.117 266.395 202.938 266.534 202.785C266.673 202.633 266.842 202.512 267.031 202.431C267.22 202.349 267.424 202.307 267.63 202.31H345C345.438 202.318 345.858 202.486 346.181 202.782C346.503 203.079 346.706 203.484 346.75 203.92C346.772 204.123 346.752 204.328 346.69 204.522C346.628 204.716 346.525 204.895 346.39 205.047C346.254 205.199 346.087 205.32 345.901 205.403C345.715 205.487 345.514 205.53 345.31 205.53Z" fill="white"/>
<path d="M342.09 214.63H255.09C254.653 214.623 254.234 214.456 253.912 214.161C253.59 213.867 253.386 213.464 253.34 213.03C253.317 212.825 253.338 212.617 253.402 212.421C253.466 212.225 253.571 212.044 253.71 211.892C253.849 211.74 254.02 211.619 254.209 211.537C254.399 211.456 254.604 211.416 254.81 211.42H341.81C342.248 211.428 342.668 211.596 342.991 211.892C343.314 212.189 343.516 212.594 343.56 213.03C343.581 213.234 343.559 213.441 343.494 213.636C343.43 213.831 343.325 214.01 343.186 214.161C343.047 214.313 342.877 214.433 342.688 214.513C342.499 214.594 342.295 214.634 342.09 214.63Z" fill="white"/>
<path d="M346.9 223.74H255.9C255.462 223.732 255.042 223.564 254.719 223.268C254.396 222.971 254.194 222.566 254.15 222.13C254.127 221.926 254.148 221.719 254.212 221.523C254.275 221.328 254.379 221.148 254.517 220.996C254.655 220.844 254.824 220.722 255.012 220.64C255.201 220.558 255.404 220.517 255.61 220.52H346.67C347.108 220.528 347.528 220.696 347.851 220.992C348.174 221.289 348.376 221.694 348.42 222.13C348.444 222.339 348.421 222.552 348.354 222.751C348.288 222.951 348.178 223.134 348.033 223.288C347.889 223.441 347.712 223.561 347.517 223.639C347.321 223.717 347.11 223.752 346.9 223.74Z" fill="white"/>
<path d="M341.27 232.84H256.64C256.204 232.835 255.785 232.668 255.464 232.373C255.143 232.078 254.942 231.674 254.9 231.24C254.876 231.035 254.895 230.828 254.958 230.632C255.021 230.435 255.125 230.255 255.263 230.102C255.402 229.95 255.571 229.829 255.76 229.747C255.95 229.666 256.154 229.626 256.36 229.63H341C341.438 229.638 341.858 229.806 342.181 230.102C342.504 230.399 342.706 230.804 342.75 231.24C342.773 231.446 342.752 231.654 342.687 231.85C342.623 232.047 342.517 232.227 342.376 232.379C342.236 232.53 342.064 232.65 341.873 232.73C341.682 232.809 341.477 232.847 341.27 232.84Z" fill="white"/>
</g>
<path d="M270.34 141.48H272.71L273.43 149.79H278.57L278.74 151.72H271.23L270.34 141.48Z" fill="#263238"/>
<path d="M281.93 151.2C281.058 150.764 280.312 150.113 279.76 149.31C279.195 148.51 278.851 147.575 278.76 146.6C278.655 145.665 278.826 144.72 279.25 143.88C279.658 143.082 280.295 142.424 281.08 141.99C281.944 141.519 282.916 141.281 283.9 141.3C284.918 141.29 285.923 141.527 286.83 141.99C287.696 142.435 288.441 143.083 289 143.88C289.569 144.682 289.914 145.621 290 146.6C290.105 147.532 289.935 148.474 289.51 149.31C289.098 150.109 288.457 150.766 287.67 151.2C286.81 151.674 285.841 151.912 284.86 151.89C283.842 151.9 282.837 151.663 281.93 151.2ZM286.29 149.46C286.729 149.175 287.077 148.768 287.29 148.29C287.527 147.76 287.617 147.176 287.55 146.6C287.509 145.995 287.316 145.411 286.99 144.9C286.675 144.412 286.243 144.012 285.733 143.736C285.222 143.459 284.65 143.317 284.07 143.32C283.505 143.309 282.948 143.454 282.46 143.74C282.018 144.017 281.669 144.422 281.46 144.9C281.214 145.431 281.121 146.019 281.19 146.6C281.231 147.202 281.424 147.783 281.75 148.29C282.063 148.777 282.493 149.18 283 149.46C283.518 149.732 284.095 149.873 284.68 149.87C285.244 149.881 285.8 149.74 286.29 149.46Z" fill="#263238"/>
<path d="M298.64 149.52H293.89L293.17 151.72H290.74L294.41 141.48H296.75L302.23 151.72H299.74L298.64 149.52ZM297.74 147.72L295.74 143.8L294.46 147.72H297.74Z" fill="#263238"/>
<path d="M311.79 141.48L312.68 151.72H310.74L305.09 145.5L305.63 151.72H303.29L302.4 141.48H304.4L310.03 147.69L309.49 141.48H311.79Z" fill="#263238"/>
<g opacity="0.3">
<path d="M270.34 141.48H272.71L273.43 149.79H278.57L278.74 151.72H271.23L270.34 141.48Z" fill="white"/>
<path d="M281.93 151.2C281.058 150.764 280.312 150.113 279.76 149.31C279.195 148.51 278.851 147.575 278.76 146.6C278.655 145.665 278.826 144.72 279.25 143.88C279.658 143.082 280.295 142.424 281.08 141.99C281.944 141.519 282.916 141.281 283.9 141.3C284.918 141.29 285.923 141.527 286.83 141.99C287.696 142.435 288.441 143.083 289 143.88C289.569 144.682 289.914 145.621 290 146.6C290.105 147.532 289.934 148.474 289.51 149.31C289.098 150.109 288.457 150.766 287.67 151.2C286.81 151.674 285.841 151.912 284.86 151.89C283.842 151.9 282.837 151.663 281.93 151.2ZM286.29 149.46C286.729 149.175 287.077 148.768 287.29 148.29C287.527 147.76 287.617 147.176 287.55 146.6C287.509 145.995 287.316 145.411 286.99 144.9C286.675 144.412 286.243 144.012 285.733 143.736C285.222 143.459 284.65 143.317 284.07 143.32C283.505 143.309 282.948 143.454 282.46 143.74C282.018 144.017 281.669 144.422 281.46 144.9C281.214 145.431 281.121 146.019 281.19 146.6C281.231 147.202 281.424 147.783 281.75 148.29C282.063 148.777 282.493 149.18 283 149.46C283.518 149.732 284.095 149.873 284.68 149.87C285.244 149.881 285.8 149.74 286.29 149.46Z" fill="white"/>
<path d="M298.64 149.52H293.89L293.17 151.72H290.74L294.41 141.48H296.75L302.23 151.72H299.74L298.64 149.52ZM297.74 147.72L295.74 143.8L294.46 147.72H297.74Z" fill="white"/>
<path d="M311.79 141.48L312.68 151.72H310.74L305.09 145.5L305.63 151.72H303.29L302.4 141.48H304.4L310.03 147.69L309.49 141.48H311.79Z" fill="white"/>
</g>
<path d="M345.71 282.12H318.55C318.113 282.113 317.694 281.946 317.372 281.651C317.05 281.357 316.846 280.954 316.8 280.52C316.779 280.315 316.801 280.108 316.866 279.913C316.93 279.717 317.035 279.538 317.174 279.385C317.313 279.233 317.482 279.112 317.671 279.031C317.86 278.949 318.064 278.907 318.27 278.91H345.43C345.868 278.918 346.288 279.086 346.611 279.382C346.934 279.679 347.136 280.084 347.18 280.52C347.201 280.724 347.179 280.931 347.114 281.126C347.05 281.321 346.945 281.5 346.806 281.651C346.667 281.803 346.497 281.923 346.308 282.003C346.119 282.084 345.915 282.124 345.71 282.12Z" fill="#263238"/>
<path d="M316.57 276.57C316.516 276.506 316.475 276.431 316.45 276.35C316.425 276.27 316.416 276.185 316.425 276.101C316.433 276.017 316.458 275.936 316.499 275.862C316.539 275.788 316.594 275.722 316.66 275.67C318.58 274.26 320.66 272.6 322.66 270.94C323.273 267.619 324.877 264.562 327.26 262.17C328.82 260.82 329.98 260.98 330.68 261.36C330.912 261.476 331.111 261.647 331.261 261.858C331.411 262.069 331.507 262.313 331.54 262.57C331.79 264.57 327.81 268.41 323.89 271.71C323.811 272.25 323.859 272.802 324.03 273.32C324.105 273.521 324.242 273.693 324.422 273.81C324.603 273.927 324.816 273.983 325.03 273.97C327.23 274.11 328.43 272.97 329.58 271.83C330.89 270.56 332.23 269.26 334.69 270.46C336.85 271.53 336.9 272.6 336.78 273.52C336.761 273.626 336.761 273.734 336.78 273.84C337.389 274.134 338.054 274.291 338.73 274.3C340.022 274.446 341.328 274.2 342.479 273.593C343.629 272.987 344.57 272.048 345.18 270.9C345.265 270.767 345.397 270.673 345.55 270.635C345.703 270.598 345.864 270.621 346 270.7C346.084 270.738 346.158 270.793 346.22 270.862C346.282 270.93 346.329 271.01 346.359 271.097C346.389 271.184 346.401 271.276 346.394 271.367C346.387 271.459 346.362 271.548 346.32 271.63C345.597 272.989 344.482 274.097 343.118 274.811C341.755 275.525 340.208 275.81 338.68 275.63C337 275.42 336.19 275.13 335.76 274.63C335.623 274.442 335.529 274.227 335.485 273.999C335.44 273.771 335.445 273.536 335.5 273.31C335.57 272.79 335.62 272.39 334.21 271.69C332.8 270.99 331.89 271.57 330.56 272.87C329.23 274.17 327.83 275.52 325.08 275.34C324.601 275.327 324.137 275.172 323.747 274.894C323.357 274.616 323.059 274.228 322.89 273.78C322.768 273.48 322.69 273.163 322.66 272.84C320.56 274.55 318.66 276.01 317.52 276.84C317.44 276.886 317.352 276.915 317.261 276.926C317.169 276.938 317.077 276.93 316.988 276.905C316.9 276.88 316.817 276.837 316.745 276.78C316.673 276.722 316.614 276.651 316.57 276.57ZM329.77 262.39C329.175 262.477 328.624 262.754 328.2 263.18C326.451 264.933 325.154 267.085 324.42 269.45C327.8 266.45 330.42 263.74 330.27 262.61C330.27 262.56 330.27 262.53 330.17 262.48C330.047 262.416 329.909 262.385 329.77 262.39Z" fill="#263238"/>
<g opacity="0.3">
<path d="M345.71 282.12H318.55C318.113 282.113 317.694 281.946 317.372 281.651C317.05 281.357 316.846 280.954 316.8 280.52C316.779 280.315 316.801 280.108 316.866 279.913C316.93 279.717 317.035 279.538 317.174 279.385C317.313 279.233 317.482 279.112 317.671 279.031C317.86 278.949 318.064 278.907 318.27 278.91H345.43C345.868 278.918 346.288 279.086 346.611 279.382C346.934 279.679 347.136 280.084 347.18 280.52C347.201 280.724 347.179 280.931 347.114 281.126C347.05 281.321 346.945 281.5 346.806 281.651C346.667 281.803 346.497 281.923 346.308 282.003C346.119 282.084 345.915 282.124 345.71 282.12Z" fill="white"/>
<path d="M316.57 276.57C316.516 276.506 316.475 276.431 316.45 276.35C316.425 276.27 316.416 276.185 316.425 276.101C316.433 276.017 316.458 275.936 316.499 275.862C316.539 275.788 316.594 275.722 316.66 275.67C318.58 274.26 320.66 272.6 322.66 270.94C323.273 267.619 324.877 264.562 327.26 262.17C328.82 260.82 329.98 260.98 330.68 261.36C330.912 261.476 331.111 261.647 331.261 261.858C331.411 262.069 331.507 262.313 331.54 262.57C331.79 264.57 327.81 268.41 323.89 271.71C323.811 272.25 323.859 272.802 324.03 273.32C324.105 273.521 324.242 273.693 324.422 273.81C324.603 273.927 324.816 273.983 325.03 273.97C327.23 274.11 328.43 272.97 329.58 271.83C330.89 270.56 332.23 269.26 334.69 270.46C336.85 271.53 336.9 272.6 336.78 273.52C336.761 273.626 336.761 273.734 336.78 273.84C337.389 274.134 338.054 274.291 338.73 274.3C340.022 274.446 341.328 274.2 342.479 273.593C343.629 272.987 344.57 272.048 345.18 270.9C345.265 270.767 345.397 270.673 345.55 270.635C345.703 270.598 345.864 270.621 346 270.7C346.084 270.738 346.158 270.793 346.22 270.862C346.282 270.93 346.329 271.01 346.359 271.097C346.389 271.184 346.401 271.276 346.394 271.367C346.387 271.459 346.362 271.548 346.32 271.63C345.597 272.989 344.482 274.097 343.118 274.811C341.755 275.525 340.208 275.81 338.68 275.63C337 275.42 336.19 275.13 335.76 274.63C335.623 274.442 335.529 274.227 335.485 273.999C335.44 273.771 335.445 273.536 335.5 273.31C335.57 272.79 335.62 272.39 334.21 271.69C332.8 270.99 331.89 271.57 330.56 272.87C329.23 274.17 327.83 275.52 325.08 275.34C324.601 275.327 324.137 275.172 323.747 274.894C323.357 274.616 323.059 274.228 322.89 273.78C322.768 273.48 322.69 273.163 322.66 272.84C320.56 274.55 318.66 276.01 317.52 276.84C317.44 276.886 317.352 276.915 317.261 276.926C317.169 276.938 317.077 276.93 316.988 276.905C316.9 276.88 316.817 276.837 316.745 276.78C316.673 276.722 316.614 276.651 316.57 276.57ZM329.77 262.39C329.175 262.477 328.624 262.754 328.2 263.18C326.451 264.933 325.154 267.085 324.42 269.45C327.8 266.45 330.42 263.74 330.27 262.61C330.27 262.56 330.27 262.53 330.17 262.48C330.047 262.416 329.909 262.385 329.77 262.39Z" fill="white"/>
</g>
<path d="M263.88 109.38H273.57L275.14 127.06H265.45C263.838 127.032 262.293 126.414 261.106 125.323C259.919 124.232 259.174 122.744 259.01 121.14L258.49 115.3C258.406 114.547 258.484 113.785 258.717 113.064C258.951 112.344 259.336 111.681 259.846 111.121C260.356 110.561 260.98 110.116 261.675 109.815C262.371 109.515 263.123 109.367 263.88 109.38Z" fill="#263238"/>
<path d="M307 127.06H267.85C266.045 127.028 264.315 126.335 262.987 125.114C261.658 123.892 260.823 122.226 260.64 120.43L260.25 116.01C260.161 115.167 260.252 114.314 260.516 113.508C260.781 112.702 261.213 111.962 261.785 111.335C262.356 110.709 263.054 110.21 263.833 109.873C264.611 109.536 265.452 109.368 266.3 109.38H305.46C307.265 109.412 308.995 110.105 310.323 111.326C311.652 112.548 312.487 114.214 312.67 116.01L313.06 120.43C313.149 121.274 313.058 122.128 312.793 122.934C312.528 123.741 312.095 124.482 311.522 125.109C310.949 125.735 310.25 126.233 309.47 126.57C308.691 126.906 307.849 127.073 307 127.06Z" fill="#263238"/>
<path opacity="0.5" d="M307 127.06H267.85C266.045 127.028 264.315 126.335 262.987 125.114C261.658 123.892 260.823 122.226 260.64 120.43L260.25 116.01C260.161 115.167 260.252 114.314 260.516 113.508C260.781 112.702 261.213 111.962 261.785 111.335C262.356 110.709 263.054 110.21 263.833 109.873C264.611 109.536 265.452 109.368 266.3 109.38H305.46C307.265 109.412 308.995 110.105 310.323 111.326C311.652 112.548 312.487 114.214 312.67 116.01L313.06 120.43C313.149 121.274 313.058 122.128 312.793 122.934C312.528 123.741 312.095 124.482 311.522 125.109C310.949 125.735 310.25 126.233 309.47 126.57C308.691 126.906 307.849 127.073 307 127.06Z" fill="white"/>
<path d="M306.7 120.09C306.726 120.311 306.704 120.535 306.636 120.747C306.568 120.959 306.455 121.154 306.305 121.319C306.156 121.484 305.972 121.615 305.768 121.703C305.564 121.791 305.343 121.834 305.12 121.83C304.645 121.823 304.19 121.642 303.839 121.321C303.489 121 303.269 120.562 303.22 120.09C303.196 119.868 303.219 119.644 303.288 119.432C303.358 119.22 303.471 119.025 303.622 118.861C303.772 118.696 303.956 118.565 304.161 118.477C304.366 118.389 304.587 118.346 304.81 118.35C305.284 118.358 305.738 118.539 306.087 118.86C306.435 119.181 306.653 119.619 306.7 120.09Z" fill="#263238"/>
<path d="M270.41 120.09C270.436 120.311 270.414 120.535 270.346 120.747C270.278 120.959 270.165 121.154 270.015 121.319C269.866 121.484 269.682 121.615 269.478 121.703C269.274 121.791 269.053 121.834 268.83 121.83C268.355 121.823 267.9 121.642 267.549 121.321C267.199 121 266.979 120.562 266.93 120.09C266.906 119.868 266.929 119.644 266.998 119.432C267.068 119.22 267.181 119.025 267.332 118.861C267.482 118.696 267.666 118.565 267.871 118.477C268.076 118.389 268.297 118.346 268.52 118.35C268.994 118.358 269.448 118.539 269.797 118.86C270.145 119.181 270.363 119.619 270.41 120.09Z" fill="#263238"/>
<path d="M314.42 266.94C312.722 266.904 311.087 266.29 309.785 265.199C308.483 264.108 307.592 262.606 307.26 260.94L307.02 259.65C306.827 258.816 306.814 257.95 306.983 257.11C307.152 256.271 307.498 255.477 308 254.783C308.501 254.089 309.145 253.51 309.888 253.085C310.632 252.66 311.457 252.399 312.31 252.32L345.72 248.77C347.51 248.604 349.297 249.122 350.72 250.22C352.187 251.315 353.195 252.915 353.55 254.71L353.8 256C353.978 256.842 353.982 257.711 353.81 258.554C353.638 259.397 353.294 260.196 352.8 260.9C352.299 261.585 351.658 262.155 350.921 262.574C350.183 262.993 349.365 263.251 348.52 263.33L315.12 266.88C314.89 266.93 314.65 266.94 314.42 266.94ZM346.53 249.94C346.337 249.93 346.143 249.93 345.95 249.94L312.54 253.49C311.846 253.555 311.175 253.767 310.569 254.111C309.964 254.456 309.439 254.926 309.03 255.49C308.625 256.064 308.342 256.715 308.199 257.404C308.056 258.092 308.056 258.802 308.2 259.49L308.44 260.77C308.738 262.229 309.557 263.529 310.744 264.427C311.931 265.326 313.405 265.76 314.89 265.65L348.29 262.1C348.984 262.038 349.657 261.827 350.263 261.482C350.868 261.137 351.393 260.666 351.8 260.1C352.206 259.526 352.49 258.875 352.635 258.187C352.779 257.499 352.781 256.789 352.64 256.1L352.4 254.82C352.104 253.345 351.274 252.031 350.07 251.13C349.042 250.383 347.801 249.986 346.53 250V249.94Z" fill="#05577D"/>
<path d="M314.46 260.78L311.92 261.05L311.63 262.31L310.92 262.38L312.16 257.33L312.84 257.26L315.94 261.85L315.22 261.93L314.46 260.78ZM314.12 260.25L312.63 258L312.05 260.47L314.12 260.25Z" fill="#05577D"/>
<path d="M319.13 257.05C319.335 257.18 319.51 257.353 319.643 257.556C319.776 257.76 319.863 257.99 319.9 258.23C319.957 258.453 319.959 258.687 319.907 258.912C319.855 259.136 319.75 259.345 319.6 259.52C319.235 259.885 318.746 260.099 318.23 260.12L317.05 260.24L317.33 261.7L316.65 261.78L315.72 256.95L317.58 256.76C318.115 256.674 318.662 256.777 319.13 257.05ZM319.03 259.14C319.122 259.023 319.187 258.887 319.22 258.742C319.253 258.596 319.253 258.445 319.22 258.3C319.196 258.144 319.139 257.994 319.053 257.861C318.966 257.729 318.853 257.616 318.72 257.53C318.414 257.367 318.063 257.307 317.72 257.36L316.56 257.48L316.97 259.64L318.13 259.52C318.454 259.494 318.76 259.36 319 259.14H319.03Z" fill="#05577D"/>
<path d="M324 256.53C324.204 256.661 324.379 256.834 324.511 257.038C324.644 257.241 324.732 257.47 324.77 257.71C324.827 257.933 324.829 258.167 324.777 258.392C324.725 258.616 324.62 258.825 324.47 259C324.108 259.37 323.617 259.585 323.1 259.6L321.92 259.73L322.2 261.19L321.52 261.26L320.59 256.44L322.45 256.24C322.985 256.154 323.532 256.257 324 256.53ZM323.9 258.62C323.992 258.503 324.057 258.367 324.09 258.221C324.123 258.076 324.123 257.925 324.09 257.78C324.066 257.625 324.008 257.477 323.922 257.346C323.836 257.215 323.723 257.104 323.59 257.02C323.285 256.854 322.934 256.79 322.59 256.84L321.43 256.96L321.84 259.13L323 259C323.332 258.98 323.646 258.846 323.89 258.62H323.9Z" fill="#05577D"/>
<path d="M329.56 260.41L328.25 259L327.95 259.05L326.77 259.18L327.05 260.64L326.37 260.72L325.44 255.89L327.3 255.69C327.836 255.612 328.382 255.718 328.85 255.99C329.054 256.119 329.228 256.29 329.361 256.492C329.494 256.694 329.582 256.921 329.62 257.16C329.7 257.494 329.668 257.845 329.53 258.16C329.39 258.451 329.153 258.685 328.86 258.82L330.31 260.32L329.56 260.41ZM328.75 258.11C328.842 257.993 328.907 257.857 328.94 257.711C328.973 257.566 328.973 257.415 328.94 257.27C328.916 257.114 328.859 256.964 328.773 256.831C328.686 256.699 328.573 256.586 328.44 256.5C328.134 256.337 327.783 256.277 327.44 256.33L326.28 256.45L326.69 258.62L327.86 258.5C328.193 258.477 328.507 258.339 328.75 258.11Z" fill="#05577D"/>
<path d="M332.13 259.86C331.708 259.694 331.336 259.422 331.05 259.07C330.76 258.718 330.564 258.298 330.48 257.85C330.387 257.417 330.419 256.966 330.57 256.55C330.704 256.146 330.963 255.796 331.31 255.55C331.675 255.289 332.103 255.13 332.55 255.09C333.008 255.038 333.472 255.102 333.898 255.277C334.325 255.452 334.7 255.732 334.99 256.09C335.282 256.444 335.479 256.868 335.56 257.32C335.653 257.753 335.621 258.204 335.47 258.62C335.336 259.024 335.077 259.374 334.73 259.62C334.368 259.878 333.943 260.034 333.5 260.07C333.033 260.123 332.56 260.05 332.13 259.86ZM334.28 259.09C334.528 258.907 334.713 258.652 334.81 258.36C334.925 258.039 334.946 257.692 334.87 257.36C334.811 257.022 334.667 256.706 334.45 256.44C334.238 256.183 333.967 255.981 333.66 255.85C333.346 255.712 333 255.663 332.66 255.71C332.33 255.734 332.015 255.852 331.75 256.05C331.502 256.235 331.315 256.489 331.21 256.78C331.095 257.101 331.074 257.448 331.15 257.78C331.215 258.116 331.359 258.431 331.57 258.7C331.786 258.958 332.06 259.16 332.37 259.29C332.686 259.421 333.03 259.47 333.37 259.43C333.699 259.403 334.014 259.285 334.28 259.09Z" fill="#05577D"/>
<path d="M340.14 254.36L339 259.41L338.32 259.48L335.32 254.88L336.06 254.8L338.54 258.58L339.54 254.43L340.14 254.36Z" fill="#05577D"/>
<path d="M345 258.15L345.11 258.75L341.64 259.12L340.71 254.3L344.09 253.94L344.2 254.54L341.51 254.83L341.8 256.31L344.19 256.05L344.31 256.64L341.91 256.89L342.21 258.45L345 258.15Z" fill="#05577D"/>
<path d="M345.32 253.81L347.32 253.6C347.796 253.544 348.279 253.599 348.73 253.76C349.146 253.912 349.515 254.171 349.8 254.51C350.094 254.863 350.29 255.287 350.37 255.74C350.461 256.169 350.433 256.615 350.29 257.03C350.153 257.435 349.89 257.785 349.54 258.03C349.155 258.284 348.71 258.436 348.25 258.47L346.25 258.69L345.32 253.81ZM348.11 257.81C348.467 257.785 348.811 257.667 349.11 257.47C349.368 257.3 349.564 257.051 349.67 256.76C349.782 256.439 349.803 256.092 349.73 255.76C349.672 255.42 349.523 255.103 349.3 254.84C349.09 254.581 348.813 254.384 348.5 254.27C348.161 254.148 347.798 254.107 347.44 254.15L346.15 254.29L346.85 257.91L348.11 257.81Z" fill="#05577D"/>
<path d="M216.82 256.61L215.91 254.86C215.575 254.221 215.469 253.487 215.609 252.779C215.749 252.072 216.127 251.433 216.68 250.97L218.31 249.6C218.863 249.137 219.24 248.498 219.38 247.79L220.76 240.84C220.903 240.133 220.797 239.398 220.46 238.76L219 236C218.665 235.361 218.559 234.627 218.699 233.919C218.839 233.212 219.217 232.573 219.77 232.11L222.51 229.81C223.07 229.35 223.455 228.711 223.6 228L225.84 216.76L218 215.18L210.19 213.62L208 224.86C207.862 225.567 207.968 226.3 208.3 226.94L209.95 230.12C210.281 230.76 210.385 231.493 210.246 232.2C210.106 232.906 209.73 233.545 209.18 234.01L206.77 236.01C206.22 236.471 205.842 237.106 205.7 237.81L204.32 244.81C204.178 245.516 204.281 246.25 204.61 246.89L205.61 248.78C205.945 249.419 206.051 250.153 205.911 250.861C205.771 251.568 205.393 252.207 204.84 252.67L203.33 253.94C202.777 254.403 202.399 255.042 202.259 255.749C202.119 256.457 202.225 257.191 202.56 257.83L203.17 259.01C203.505 259.649 203.611 260.383 203.471 261.091C203.331 261.798 202.953 262.437 202.4 262.9C201.847 263.363 201.468 264.001 201.326 264.708C201.184 265.415 201.288 266.15 201.62 266.79L203.54 270.48L206.94 271.15L210.34 271.83L213.52 269.15C214.073 268.687 214.452 268.049 214.594 267.342C214.736 266.635 214.632 265.9 214.3 265.26C213.965 264.621 213.859 263.887 213.999 263.179C214.139 262.472 214.517 261.833 215.07 261.37L216.07 260.52C216.621 260.051 216.996 259.408 217.133 258.697C217.269 257.986 217.159 257.25 216.82 256.61Z" fill="#263238"/>
<path opacity="0.6" d="M216.82 256.61L215.91 254.86C215.575 254.221 215.469 253.487 215.609 252.779C215.749 252.072 216.127 251.433 216.68 250.97L218.31 249.6C218.863 249.137 219.24 248.498 219.38 247.79L220.76 240.84C220.903 240.133 220.797 239.398 220.46 238.76L219 236C218.665 235.361 218.559 234.627 218.699 233.919C218.839 233.212 219.217 232.573 219.77 232.11L222.51 229.81C223.07 229.35 223.455 228.711 223.6 228L225.84 216.76L218 215.18L210.19 213.62L208 224.86C207.862 225.567 207.968 226.3 208.3 226.94L209.95 230.12C210.281 230.76 210.385 231.493 210.246 232.2C210.106 232.906 209.73 233.545 209.18 234.01L206.77 236.01C206.22 236.471 205.842 237.106 205.7 237.81L204.32 244.81C204.178 245.516 204.281 246.25 204.61 246.89L205.61 248.78C205.945 249.419 206.051 250.153 205.911 250.861C205.771 251.568 205.393 252.207 204.84 252.67L203.33 253.94C202.777 254.403 202.399 255.042 202.259 255.749C202.119 256.457 202.225 257.191 202.56 257.83L203.17 259.01C203.505 259.649 203.611 260.383 203.471 261.091C203.331 261.798 202.953 262.437 202.4 262.9C201.847 263.363 201.468 264.001 201.326 264.708C201.184 265.415 201.288 266.15 201.62 266.79L203.54 270.48L206.94 271.15L210.34 271.83L213.52 269.15C214.073 268.687 214.452 268.049 214.594 267.342C214.736 266.635 214.632 265.9 214.3 265.26C213.965 264.621 213.859 263.887 213.999 263.179C214.139 262.472 214.517 261.833 215.07 261.37L216.07 260.52C216.621 260.051 216.996 259.408 217.133 258.697C217.269 257.986 217.159 257.25 216.82 256.61Z" fill="white"/>
<path opacity="0.2" d="M222.53 229.78C223.077 229.324 223.454 228.697 223.6 228L225.84 216.76L221.93 215.99L218.02 215.21L210.21 213.65L208.54 222L216.36 223.56L206.89 271.15L210.29 271.83L213.47 269.15C214.023 268.687 214.402 268.049 214.544 267.342C214.686 266.635 214.582 265.9 214.25 265.26C213.915 264.621 213.809 263.887 213.949 263.179C214.089 262.472 214.467 261.833 215.02 261.37L216.02 260.52C216.572 260.056 216.949 259.418 217.091 258.712C217.233 258.005 217.13 257.271 216.8 256.63L215.89 254.88C215.555 254.241 215.449 253.507 215.589 252.799C215.729 252.092 216.107 251.453 216.66 250.99L218.29 249.62C218.843 249.156 219.22 248.518 219.36 247.81L220.74 240.86C220.882 240.154 220.779 239.42 220.45 238.78L219 236C218.665 235.361 218.559 234.627 218.699 233.919C218.839 233.212 219.217 232.573 219.77 232.11L222.53 229.78Z" fill="black"/>
<path d="M242 201.4C239.93 198.94 230.78 194.4 225.87 193.47C220.96 192.54 210.78 193.14 207.93 194.62C201.6 197.9 197.66 209.51 203.93 214.77C206.46 216.89 216.16 219.29 220.53 220.34C224.9 221.39 234.76 222.48 238 221.54C246 219.24 246.56 206.85 242 201.4ZM231.34 202.4L217.34 199.62C216.34 199.42 216.19 198.16 217.18 197.91C220.18 197.16 223.25 196.79 225.08 197.15C226.91 197.51 229.6 199.03 232.08 200.88C232.92 201.49 232.32 202.6 231.3 202.4H231.34Z" fill="#263238"/>
<path opacity="0.6" d="M242 201.4C239.93 198.94 230.78 194.4 225.87 193.47C220.96 192.54 210.78 193.14 207.93 194.62C201.6 197.9 197.66 209.51 203.93 214.77C206.46 216.89 216.16 219.29 220.53 220.34C224.9 221.39 234.76 222.48 238 221.54C246 219.24 246.56 206.85 242 201.4ZM231.34 202.4L217.34 199.62C216.34 199.42 216.19 198.16 217.18 197.91C220.18 197.16 223.25 196.79 225.08 197.15C226.91 197.51 229.6 199.03 232.08 200.88C232.92 201.49 232.32 202.6 231.3 202.4H231.34Z" fill="black"/>
<path d="M238.56 200.72C236.49 198.27 227.34 193.77 222.42 192.8C217.5 191.83 207.33 192.47 204.48 193.94C198.15 197.22 194.22 208.83 200.48 214.09C203.02 216.22 212.72 218.61 217.09 219.66C221.46 220.71 231.31 221.8 234.56 220.87C242.57 218.56 243.15 206.17 238.56 200.72ZM227.89 201.72L214 199C213 198.79 212.85 197.53 213.83 197.29C216.83 196.53 219.91 196.16 221.74 196.53C223.57 196.9 226.25 198.4 228.74 200.25C229.52 200.81 228.92 201.92 227.89 201.72Z" fill="#263238"/>
<path d="M218.86 201.19C217.141 205.266 213.912 208.519 209.85 210.27C205.787 212.02 201.205 212.133 197.062 210.583C192.919 209.033 189.535 205.941 187.619 201.954C185.703 197.967 185.402 193.394 186.78 189.19C190.09 179.43 201.29 174.02 210.07 177.65L211.41 178.21C211.717 178.338 211.961 178.583 212.088 178.89C212.215 179.197 212.216 179.542 212.09 179.85C211.962 180.157 211.717 180.401 211.41 180.528C211.103 180.655 210.758 180.656 210.45 180.53L209.11 179.97C201.73 176.91 192.3 181.44 189.28 189.63C187.978 193.222 188.132 197.181 189.711 200.661C191.29 204.14 194.167 206.864 197.728 208.25C201.288 209.636 205.25 209.574 208.765 208.077C212.281 206.58 215.071 203.767 216.54 200.24C220 192 213.9 186 207.66 183.43L205.82 182.66C205.513 182.532 205.27 182.287 205.142 181.98C205.015 181.673 205.014 181.328 205.14 181.02C205.203 180.868 205.296 180.73 205.413 180.614C205.53 180.498 205.668 180.407 205.821 180.344C205.973 180.282 206.136 180.251 206.301 180.251C206.466 180.252 206.628 180.286 206.78 180.35L208.63 181.11C218.1 185 222.21 193.1 218.86 201.19Z" fill="#263238"/>
<g opacity="0.5">
<path d="M218.86 201.19C217.141 205.266 213.912 208.519 209.85 210.27C205.787 212.02 201.205 212.133 197.062 210.583C192.919 209.033 189.535 205.941 187.619 201.954C185.703 197.967 185.402 193.394 186.78 189.19C190.09 179.43 201.29 174.02 210.07 177.65L211.41 178.21C211.717 178.338 211.961 178.583 212.088 178.89C212.215 179.197 212.216 179.542 212.09 179.85C211.962 180.157 211.717 180.401 211.41 180.528C211.103 180.655 210.758 180.656 210.45 180.53L209.11 179.97C201.73 176.91 192.3 181.44 189.28 189.63C187.978 193.222 188.132 197.181 189.711 200.661C191.29 204.14 194.167 206.864 197.728 208.25C201.288 209.636 205.25 209.574 208.765 208.077C212.281 206.58 215.071 203.767 216.54 200.24C220 192 213.9 186 207.66 183.43L205.82 182.66C205.513 182.532 205.27 182.287 205.142 181.98C205.015 181.673 205.014 181.328 205.14 181.02C205.203 180.868 205.296 180.73 205.413 180.614C205.53 180.498 205.668 180.407 205.821 180.344C205.973 180.282 206.136 180.251 206.301 180.251C206.466 180.252 206.628 180.286 206.78 180.35L208.63 181.11C218.1 185 222.21 193.1 218.86 201.19Z" fill="white"/>
</g>
<path d="M207 218.58C206.34 213.58 199.42 204.58 194.79 202.66C190.16 200.74 178.88 202.23 174.9 205.28C166.06 212.06 154.5 235.82 157.85 246.44C159.21 250.74 168.05 255.44 172.06 257.54C176.07 259.64 185.89 261.69 189.95 259.74C200 254.9 208.49 229.62 207 218.58ZM198.65 212L185.52 206.56C185.297 206.487 185.107 206.339 184.982 206.14C184.858 205.941 184.807 205.704 184.839 205.472C184.871 205.24 184.984 205.026 185.158 204.868C185.332 204.711 185.556 204.619 185.79 204.61C188.98 204.26 192.11 204.36 193.79 205.07C195.47 205.78 197.79 207.93 199.79 210.43C199.933 210.601 200.015 210.815 200.023 211.038C200.031 211.26 199.964 211.48 199.833 211.66C199.702 211.84 199.514 211.972 199.3 212.034C199.086 212.095 198.857 212.083 198.65 212Z" fill="#263238"/>
<path opacity="0.6" d="M207 218.58C206.34 213.58 199.42 204.58 194.79 202.66C190.16 200.74 178.88 202.23 174.9 205.28C166.06 212.06 154.5 235.82 157.85 246.44C159.21 250.74 168.05 255.44 172.06 257.54C176.07 259.64 185.89 261.69 189.95 259.74C200 254.9 208.49 229.62 207 218.58ZM198.65 212L185.52 206.56C185.297 206.487 185.107 206.339 184.982 206.14C184.858 205.941 184.807 205.704 184.839 205.472C184.871 205.24 184.984 205.026 185.158 204.868C185.332 204.711 185.556 204.619 185.79 204.61C188.98 204.26 192.11 204.36 193.79 205.07C195.47 205.78 197.79 207.93 199.79 210.43C199.933 210.601 200.015 210.815 200.023 211.038C200.031 211.26 199.964 211.48 199.833 211.66C199.702 211.84 199.514 211.972 199.3 212.034C199.086 212.095 198.857 212.083 198.65 212Z" fill="black"/>
<path d="M203.83 217.25C203.18 212.25 196.25 203.25 191.62 201.34C186.99 199.43 175.71 200.9 171.73 203.95C162.9 210.73 151.33 234.49 154.73 245.11C156.09 249.41 164.94 254.11 168.94 256.22C172.94 258.33 182.77 260.36 186.83 258.41C196.82 253.57 205.28 228.29 203.83 217.25ZM195.45 210.67L182.31 205.23C182.087 205.157 181.897 205.009 181.772 204.81C181.648 204.611 181.597 204.374 181.629 204.142C181.661 203.91 181.774 203.696 181.948 203.538C182.122 203.381 182.346 203.289 182.58 203.28C185.77 202.93 188.9 203.03 190.58 203.74C192.26 204.45 194.58 206.6 196.58 209.1C196.721 209.27 196.801 209.483 196.808 209.703C196.816 209.924 196.75 210.141 196.62 210.321C196.491 210.5 196.306 210.632 196.095 210.695C195.883 210.758 195.656 210.749 195.45 210.67Z" fill="#263238"/>
<path d="M194.66 230.69L168.79 220C166.878 223.151 165.245 226.464 163.91 229.9L191.17 241.19C192.64 237.8 193.808 234.286 194.66 230.69Z" fill="#05577D"/>
<path d="M162.89 232.72C161.52 236.96 160.89 240.83 161.68 243.23C161.77 243.43 162.91 245.63 171.79 250.23C174.95 251.87 181.79 252.79 183.31 252.08C185.54 251 187.86 247.86 189.88 243.9L162.89 232.72Z" fill="#05577D"/>
<path d="M195.27 227.68C195.7 225.467 195.814 223.205 195.61 220.96C195.25 218.26 190.26 211.75 187.75 210.71C185.24 209.67 177.1 210.71 174.94 212.39C173.22 213.836 171.715 215.52 170.47 217.39L195.27 227.68Z" fill="#05577D"/>
<path d="M182.512 231.065L177.19 228.861L175.583 232.741L180.904 234.946L182.512 231.065Z" fill="white"/>
<path d="M181.41 231.68L180.69 231.38L181.48 229.47C181.567 229.306 181.62 229.125 181.633 228.939C181.646 228.754 181.62 228.568 181.557 228.393C181.494 228.218 181.394 228.058 181.265 227.924C181.137 227.789 180.981 227.684 180.809 227.613C180.636 227.543 180.451 227.51 180.265 227.515C180.079 227.521 179.897 227.566 179.729 227.647C179.561 227.727 179.413 227.842 179.292 227.984C179.172 228.126 179.082 228.291 179.03 228.47L178.24 230.38L177.52 230.08L178.31 228.17C178.402 227.896 178.549 227.643 178.743 227.428C178.937 227.213 179.173 227.041 179.436 226.921C179.699 226.801 179.984 226.736 180.274 226.731C180.563 226.726 180.85 226.781 181.117 226.891C181.385 227.002 181.626 227.166 181.828 227.374C182.029 227.582 182.185 227.83 182.286 228.1C182.388 228.371 182.433 228.66 182.418 228.949C182.403 229.238 182.329 229.521 182.2 229.78L181.41 231.68Z" fill="white"/>
<path d="M177.177 243.893L171.855 241.689L170.248 245.569L175.569 247.773L177.177 243.893Z" fill="white"/>
<path d="M172.93 243.2L172.21 242.9L173 241C173.092 240.726 173.239 240.473 173.433 240.258C173.627 240.043 173.863 239.871 174.126 239.751C174.389 239.631 174.674 239.566 174.964 239.561C175.253 239.556 175.54 239.611 175.807 239.721C176.075 239.832 176.316 239.996 176.518 240.204C176.719 240.412 176.875 240.66 176.976 240.93C177.078 241.201 177.123 241.49 177.108 241.779C177.093 242.068 177.019 242.351 176.89 242.61L176.16 242.31C176.236 242.148 176.278 241.973 176.283 241.794C176.289 241.615 176.259 241.438 176.193 241.271C176.128 241.105 176.03 240.953 175.905 240.826C175.78 240.698 175.63 240.598 175.465 240.53C175.299 240.462 175.122 240.429 174.943 240.432C174.765 240.434 174.588 240.473 174.425 240.546C174.262 240.619 174.116 240.725 173.994 240.856C173.873 240.987 173.78 241.142 173.72 241.31L172.93 243.2Z" fill="white"/>
<path d="M190.14 217.95L187.93 217.03L186.08 214.03L183.31 220.72L186.74 219.9L188.95 220.82L190.14 217.95Z" fill="white"/>
<path d="M180.46 219.43C179.959 218.209 179.96 216.84 180.464 215.621C180.968 214.401 181.933 213.431 183.15 212.92L183.55 213.92C183.072 214.118 182.638 214.409 182.272 214.775C181.906 215.141 181.616 215.575 181.418 216.054C181.22 216.532 181.119 217.045 181.119 217.562C181.119 218.08 181.222 218.592 181.42 219.07L180.46 219.43Z" fill="white"/>
<path d="M182.73 218.49C182.474 217.872 182.474 217.178 182.729 216.559C182.984 215.941 183.473 215.449 184.09 215.19L184.49 216.19C184.128 216.345 183.841 216.636 183.69 217C183.615 217.179 183.577 217.371 183.577 217.565C183.577 217.759 183.615 217.951 183.69 218.13L182.73 218.49Z" fill="white"/>
<path d="M82.09 395.48L144.78 397.53H283.45L343.28 394.49V381.42L335.61 370.34L314.75 362.97L288.28 370.34L277.78 380.25L159.04 381.42L135.78 364.47L117.6 357.91L90.95 364.8L84.45 376.72L80.61 388.72L82.09 395.48Z" fill="#263238"/>
<path opacity="0.6" d="M82.09 395.48L144.78 397.53H283.45L343.28 394.49V381.42L335.61 370.34L314.75 362.97L288.28 370.34L277.78 380.25L159.04 381.42L135.78 364.47L117.6 357.91L90.95 364.8L84.45 376.72L80.61 388.72L82.09 395.48Z" fill="black"/>
<path d="M85.74 385.57C88 380.1 96.86 371 102.31 368.72C107.61 366.5 120.19 366.08 125.31 368.72C130.71 371.51 137.54 382.72 139.39 388.53C140.07 390.67 139.87 395.81 139.65 399.2L287.65 400.76C287.34 396.65 287.13 390.98 288.1 388.61C290.34 383.15 299.22 374.05 304.67 371.77C309.97 369.54 322.55 369.13 327.67 371.77C333.07 374.55 339.91 385.77 341.76 391.58C342.206 393.794 342.354 396.057 342.2 398.31C343.336 397.475 344.346 396.481 345.2 395.36L346.59 393.48C348.448 390.979 349.451 387.946 349.45 384.83V380C349.449 377.338 348.719 374.727 347.34 372.45L343.78 366.6V326.84C343.782 324.884 343.387 322.949 342.62 321.15L328.4 287.72C327.317 285.174 325.53 282.99 323.248 281.426C320.966 279.862 318.285 278.982 315.52 278.89C300.25 278.37 270.29 277.47 258.12 277.89C240.42 278.49 192.96 283.33 178.81 284.8C176.197 285.073 173.743 286.181 171.81 287.96L129.81 326.56L88 344.75C86.255 345.518 84.7134 346.682 83.4981 348.151C82.2828 349.62 81.4274 351.352 81 353.21L77.06 370.21L75.75 371.92C73.8115 374.461 72.9398 377.657 73.32 380.83L74.13 387.45C74.5141 390.588 76.0981 393.455 78.55 395.45L79.07 395.87C80.8695 397.339 83.0523 398.262 85.36 398.53C85 394.41 84.7 388.09 85.74 385.57Z" fill="#05577D"/>
<path d="M111.88 418.22C124.444 418.22 134.63 408.034 134.63 395.47C134.63 382.906 124.444 372.72 111.88 372.72C99.3155 372.72 89.13 382.906 89.13 395.47C89.13 408.034 99.3155 418.22 111.88 418.22Z" fill="#263238"/>
<path opacity="0.5" d="M111.88 411.32C120.634 411.32 127.73 404.224 127.73 395.47C127.73 386.716 120.634 379.62 111.88 379.62C103.126 379.62 96.03 386.716 96.03 395.47C96.03 404.224 103.126 411.32 111.88 411.32Z" fill="white"/>
<g opacity="0.5">
<path d="M106 390.26L104.9 386.96C104.784 386.607 104.578 386.291 104.303 386.042C104.027 385.793 103.691 385.621 103.328 385.542C102.965 385.463 102.588 385.481 102.234 385.593C101.88 385.705 101.562 385.907 101.31 386.18C100.074 387.579 99.1285 389.211 98.53 390.98C98.4179 391.335 98.4006 391.714 98.4798 392.078C98.559 392.442 98.7319 392.779 98.9815 393.056C99.231 393.333 99.5485 393.54 99.9025 393.656C100.257 393.773 100.635 393.795 101 393.72L104.4 393.03C104.697 392.971 104.978 392.849 105.223 392.672C105.469 392.496 105.675 392.269 105.826 392.007C105.978 391.745 106.072 391.453 106.101 391.152C106.131 390.851 106.097 390.547 106 390.26Z" fill="black"/>
<path d="M113.48 387.81L115.78 385.2C116.028 384.925 116.2 384.59 116.279 384.228C116.357 383.866 116.339 383.489 116.227 383.136C116.115 382.783 115.912 382.466 115.639 382.215C115.366 381.965 115.032 381.791 114.67 381.71C112.83 381.323 110.93 381.323 109.09 381.71C108.73 381.794 108.398 381.97 108.127 382.221C107.857 382.473 107.656 382.79 107.546 383.143C107.436 383.496 107.42 383.871 107.499 384.232C107.579 384.593 107.752 384.926 108 385.2L110.31 387.81C110.509 388.034 110.753 388.213 111.026 388.336C111.299 388.459 111.595 388.522 111.895 388.522C112.194 388.522 112.491 388.459 112.764 388.336C113.037 388.213 113.281 388.034 113.48 387.81Z" fill="black"/>
<path d="M119.31 393L122.72 393.69C123.085 393.766 123.463 393.744 123.817 393.628C124.172 393.512 124.489 393.305 124.738 393.027C124.987 392.75 125.159 392.412 125.236 392.048C125.314 391.683 125.295 391.305 125.18 390.95C124.586 389.181 123.644 387.549 122.41 386.15C122.158 385.877 121.84 385.675 121.486 385.563C121.132 385.451 120.755 385.433 120.392 385.512C120.029 385.591 119.693 385.763 119.417 386.012C119.142 386.261 118.936 386.577 118.82 386.93L117.71 390.23C117.615 390.517 117.582 390.821 117.612 391.121C117.643 391.422 117.737 391.713 117.888 391.974C118.039 392.236 118.244 392.463 118.489 392.639C118.734 392.816 119.014 392.939 119.31 393Z" fill="black"/>
<path d="M117.71 400.69L118.82 403.99C118.936 404.343 119.142 404.659 119.417 404.908C119.693 405.157 120.029 405.329 120.392 405.408C120.755 405.487 121.132 405.469 121.486 405.357C121.84 405.245 122.158 405.043 122.41 404.77C123.644 403.371 124.586 401.739 125.18 399.97C125.295 399.615 125.314 399.237 125.236 398.872C125.159 398.508 124.987 398.17 124.738 397.893C124.489 397.615 124.172 397.408 123.817 397.292C123.463 397.176 123.085 397.154 122.72 397.23L119.31 397.92C119.014 397.981 118.734 398.104 118.489 398.281C118.244 398.457 118.039 398.684 117.888 398.946C117.737 399.207 117.643 399.498 117.612 399.799C117.582 400.099 117.615 400.403 117.71 400.69Z" fill="black"/>
<path d="M110.28 403.14L108 405.75C107.752 406.026 107.58 406.362 107.502 406.724C107.424 407.087 107.443 407.464 107.556 407.817C107.67 408.17 107.874 408.488 108.148 408.737C108.422 408.987 108.758 409.16 109.12 409.24C110.96 409.627 112.86 409.627 114.7 409.24C115.062 409.159 115.396 408.985 115.669 408.735C115.942 408.484 116.145 408.167 116.257 407.814C116.369 407.461 116.387 407.084 116.309 406.722C116.23 406.36 116.058 406.025 115.81 405.75L113.51 403.14C113.311 402.906 113.063 402.718 112.785 402.589C112.506 402.46 112.202 402.393 111.895 402.393C111.588 402.393 111.284 402.46 111.005 402.589C110.727 402.718 110.479 402.906 110.28 403.14Z" fill="black"/>
<path d="M104.44 397.92L101.04 397.23C100.672 397.153 100.289 397.174 99.9317 397.292C99.5741 397.409 99.2539 397.619 99.0033 397.9C98.7528 398.181 98.5808 398.523 98.5047 398.892C98.4286 399.261 98.4511 399.643 98.57 400C99.1685 401.769 100.114 403.401 101.35 404.8C101.602 405.073 101.92 405.275 102.274 405.387C102.628 405.499 103.005 405.517 103.368 405.438C103.731 405.359 104.067 405.187 104.343 404.938C104.618 404.689 104.824 404.373 104.94 404.02L106.04 400.72C106.142 400.431 106.18 400.124 106.153 399.82C106.126 399.515 106.033 399.219 105.881 398.954C105.729 398.688 105.522 398.458 105.273 398.28C105.025 398.101 104.74 397.979 104.44 397.92Z" fill="black"/>
</g>
<g opacity="0.5">
<path d="M109.82 394.49C110.411 394.49 110.89 394.011 110.89 393.42C110.89 392.829 110.411 392.35 109.82 392.35C109.229 392.35 108.75 392.829 108.75 393.42C108.75 394.011 109.229 394.49 109.82 394.49Z" fill="white"/>
<path d="M115 393.42C115 393.632 114.937 393.839 114.82 394.014C114.702 394.19 114.535 394.328 114.339 394.409C114.144 394.49 113.929 394.511 113.721 394.469C113.514 394.428 113.323 394.326 113.173 394.177C113.024 394.027 112.922 393.836 112.881 393.629C112.839 393.421 112.86 393.206 112.941 393.011C113.022 392.815 113.16 392.648 113.336 392.53C113.511 392.413 113.718 392.35 113.93 392.35C114.214 392.35 114.486 392.463 114.687 392.663C114.887 392.864 115 393.136 115 393.42Z" fill="white"/>
<path d="M110.89 397.53C110.89 397.742 110.827 397.948 110.71 398.124C110.592 398.3 110.425 398.438 110.229 398.519C110.034 398.6 109.819 398.621 109.611 398.579C109.404 398.538 109.213 398.436 109.063 398.287C108.914 398.137 108.812 397.946 108.771 397.739C108.729 397.531 108.75 397.316 108.831 397.121C108.912 396.925 109.05 396.758 109.226 396.64C109.401 396.523 109.608 396.46 109.82 396.46C110.104 396.46 110.376 396.573 110.577 396.773C110.777 396.974 110.89 397.246 110.89 397.53Z" fill="white"/>
<path d="M115 397.53C115 397.742 114.937 397.948 114.82 398.124C114.702 398.3 114.535 398.438 114.339 398.519C114.144 398.6 113.929 398.621 113.721 398.579C113.514 398.538 113.323 398.436 113.173 398.287C113.024 398.137 112.922 397.946 112.881 397.739C112.839 397.531 112.86 397.316 112.941 397.121C113.022 396.925 113.16 396.758 113.336 396.64C113.511 396.523 113.718 396.46 113.93 396.46C114.214 396.46 114.486 396.573 114.687 396.773C114.887 396.974 115 397.246 115 397.53Z" fill="white"/>
</g>
<path d="M315.74 418.22C328.304 418.22 338.49 408.034 338.49 395.47C338.49 382.906 328.304 372.72 315.74 372.72C303.176 372.72 292.99 382.906 292.99 395.47C292.99 408.034 303.176 418.22 315.74 418.22Z" fill="#263238"/>
<path opacity="0.5" d="M315.74 411.32C324.494 411.32 331.59 404.224 331.59 395.47C331.59 386.716 324.494 379.62 315.74 379.62C306.986 379.62 299.89 386.716 299.89 395.47C299.89 404.224 306.986 411.32 315.74 411.32Z" fill="white"/>
<g opacity="0.5">
<path d="M309.9 390.26L308.8 386.96C308.684 386.607 308.478 386.291 308.203 386.042C307.927 385.793 307.591 385.621 307.228 385.542C306.866 385.463 306.488 385.481 306.134 385.593C305.78 385.705 305.462 385.907 305.21 386.18C303.974 387.579 303.028 389.211 302.43 390.98C302.318 391.335 302.301 391.714 302.38 392.078C302.459 392.442 302.632 392.779 302.881 393.056C303.131 393.333 303.449 393.54 303.803 393.656C304.157 393.773 304.535 393.795 304.9 393.72L308.3 393.03C308.597 392.971 308.878 392.849 309.123 392.672C309.369 392.496 309.575 392.269 309.726 392.007C309.878 391.745 309.972 391.453 310.002 391.152C310.031 390.851 309.997 390.547 309.9 390.26Z" fill="black"/>
<path d="M317.34 387.81L319.64 385.2C319.888 384.925 320.06 384.59 320.139 384.228C320.217 383.866 320.199 383.489 320.087 383.136C319.975 382.783 319.772 382.466 319.499 382.215C319.226 381.965 318.892 381.791 318.53 381.71C316.69 381.323 314.79 381.323 312.95 381.71C312.588 381.79 312.252 381.963 311.978 382.213C311.704 382.462 311.5 382.78 311.386 383.133C311.273 383.486 311.254 383.863 311.332 384.226C311.41 384.588 311.582 384.924 311.83 385.2L314.14 387.81C314.339 388.039 314.585 388.222 314.861 388.348C315.137 388.474 315.437 388.539 315.74 388.539C316.043 388.539 316.343 388.474 316.619 388.348C316.895 388.222 317.141 388.039 317.34 387.81Z" fill="black"/>
<path d="M323.17 393L326.58 393.69C326.937 393.754 327.303 393.725 327.646 393.608C327.989 393.49 328.295 393.287 328.538 393.018C328.78 392.748 328.95 392.422 329.03 392.069C329.111 391.716 329.101 391.348 329 391C328.406 389.231 327.464 387.599 326.23 386.2C325.978 385.927 325.66 385.725 325.306 385.613C324.952 385.501 324.575 385.483 324.212 385.562C323.849 385.641 323.513 385.813 323.237 386.062C322.962 386.311 322.756 386.627 322.64 386.98L321.53 390.28C321.443 390.567 321.418 390.868 321.455 391.165C321.492 391.462 321.591 391.748 321.746 392.004C321.9 392.261 322.107 392.482 322.352 392.653C322.598 392.825 322.876 392.943 323.17 393Z" fill="black"/>
<path d="M321.57 400.69L322.68 403.99C322.796 404.343 323.002 404.659 323.277 404.908C323.553 405.157 323.889 405.329 324.252 405.408C324.615 405.487 324.992 405.469 325.346 405.357C325.7 405.245 326.018 405.043 326.27 404.77C327.486 403.376 328.414 401.755 329 400C329.115 399.645 329.134 399.267 329.056 398.902C328.979 398.538 328.807 398.2 328.558 397.923C328.309 397.645 327.992 397.438 327.637 397.322C327.283 397.206 326.905 397.184 326.54 397.26L323.13 397.95C322.841 398.016 322.569 398.142 322.331 398.318C322.093 398.495 321.895 398.72 321.748 398.977C321.601 399.235 321.51 399.52 321.479 399.815C321.448 400.11 321.479 400.408 321.57 400.69Z" fill="black"/>
<path d="M314.14 403.14L311.83 405.75C311.582 406.026 311.41 406.362 311.332 406.724C311.254 407.087 311.273 407.464 311.386 407.817C311.5 408.17 311.704 408.488 311.978 408.737C312.252 408.987 312.588 409.16 312.95 409.24C314.79 409.627 316.69 409.627 318.53 409.24C318.892 409.159 319.226 408.985 319.499 408.735C319.772 408.484 319.975 408.167 320.087 407.814C320.199 407.461 320.217 407.084 320.139 406.722C320.06 406.36 319.888 406.025 319.64 405.75L317.34 403.14C317.141 402.911 316.895 402.728 316.619 402.602C316.343 402.476 316.043 402.411 315.74 402.411C315.437 402.411 315.137 402.476 314.861 402.602C314.585 402.728 314.339 402.911 314.14 403.14Z" fill="black"/>
<path d="M308.3 397.92L304.9 397.23C304.535 397.155 304.157 397.177 303.803 397.294C303.449 397.41 303.131 397.617 302.881 397.894C302.632 398.17 302.459 398.508 302.38 398.872C302.301 399.236 302.318 399.615 302.43 399.97C303.028 401.739 303.974 403.371 305.21 404.77C305.462 405.043 305.78 405.245 306.134 405.357C306.488 405.469 306.866 405.487 307.228 405.408C307.591 405.329 307.927 405.157 308.203 404.908C308.478 404.659 308.684 404.343 308.8 403.99L309.9 400.69C309.997 400.403 310.031 400.099 310.002 399.798C309.972 399.497 309.878 399.205 309.726 398.943C309.575 398.681 309.369 398.454 309.123 398.278C308.878 398.101 308.597 397.979 308.3 397.92Z" fill="black"/>
</g>
<g opacity="0.5">
<path d="M314.75 393.42C314.75 393.632 314.687 393.839 314.57 394.014C314.452 394.19 314.285 394.328 314.089 394.409C313.894 394.49 313.679 394.511 313.471 394.469C313.264 394.428 313.073 394.326 312.923 394.177C312.774 394.027 312.672 393.836 312.631 393.629C312.589 393.421 312.61 393.206 312.691 393.011C312.772 392.815 312.91 392.648 313.086 392.53C313.261 392.413 313.468 392.35 313.68 392.35C313.964 392.35 314.236 392.463 314.437 392.663C314.637 392.864 314.75 393.136 314.75 393.42Z" fill="white"/>
<path d="M317.79 394.49C318.381 394.49 318.86 394.011 318.86 393.42C318.86 392.829 318.381 392.35 317.79 392.35C317.199 392.35 316.72 392.829 316.72 393.42C316.72 394.011 317.199 394.49 317.79 394.49Z" fill="white"/>
<path d="M314.75 397.53C314.75 397.742 314.687 397.948 314.57 398.124C314.452 398.3 314.285 398.438 314.089 398.519C313.894 398.6 313.679 398.621 313.471 398.579C313.264 398.538 313.073 398.436 312.923 398.287C312.774 398.137 312.672 397.946 312.631 397.739C312.589 397.531 312.61 397.316 312.691 397.121C312.772 396.925 312.91 396.758 313.086 396.64C313.261 396.523 313.468 396.46 313.68 396.46C313.964 396.46 314.236 396.573 314.437 396.773C314.637 396.974 314.75 397.246 314.75 397.53Z" fill="white"/>
<path d="M318.86 397.53C318.86 397.742 318.797 397.948 318.68 398.124C318.562 398.3 318.395 398.438 318.199 398.519C318.004 398.6 317.789 398.621 317.581 398.579C317.374 398.538 317.183 398.436 317.033 398.287C316.884 398.137 316.782 397.946 316.741 397.739C316.699 397.531 316.72 397.316 316.801 397.121C316.882 396.925 317.02 396.758 317.196 396.64C317.371 396.523 317.578 396.46 317.79 396.46C318.074 396.46 318.346 396.573 318.547 396.773C318.747 396.974 318.86 397.246 318.86 397.53Z" fill="white"/>
</g>
<path d="M170.51 294.43C171.284 293.719 171.748 292.732 171.8 291.682C171.853 290.633 171.49 289.604 170.79 288.82L129.71 326.55L128.51 327.07C128.59 327.17 128.65 327.27 128.74 327.37C129.458 328.151 130.456 328.615 131.515 328.66C132.575 328.705 133.609 328.327 134.39 327.61L170.51 294.43Z" fill="#263238"/>
<path opacity="0.5" d="M82.55 372.72C82.4861 372.72 82.4228 372.707 82.3642 372.682C82.3056 372.656 82.253 372.618 82.2097 372.571C82.1665 372.524 82.1334 372.469 82.1128 372.408C82.0922 372.348 82.0844 372.284 82.09 372.22L84 352.78C84.0071 352.712 84.0293 352.646 84.0651 352.587C84.1009 352.529 84.1493 352.479 84.2069 352.442C84.2644 352.404 84.3296 352.38 84.3976 352.371C84.4656 352.362 84.5348 352.369 84.6 352.39L86.34 352.97C87.3911 353.301 88.2808 354.013 88.8356 354.965C89.3903 355.917 89.5701 357.042 89.34 358.12L86.94 369.22C86.727 370.222 86.1728 371.118 85.3721 371.757C84.5714 372.395 83.5739 372.735 82.55 372.72Z" fill="white"/>
<g opacity="0.2">
<path d="M93.38 359.88C93.376 359.683 93.4109 359.487 93.4826 359.304C93.5543 359.12 93.6615 358.953 93.798 358.81C93.9345 358.668 94.0977 358.555 94.2782 358.476C94.4587 358.397 94.653 358.354 94.85 358.35L332.52 353.74C332.916 353.737 333.298 353.889 333.584 354.164C333.87 354.438 334.037 354.814 334.05 355.21C334.055 355.609 333.903 355.994 333.625 356.28C333.348 356.567 332.969 356.732 332.57 356.74L94.91 361.35C94.7127 361.355 94.5162 361.321 94.3321 361.25C94.148 361.179 93.9799 361.072 93.8376 360.935C93.6952 360.798 93.5814 360.635 93.5029 360.453C93.4244 360.272 93.3826 360.077 93.38 359.88Z" fill="white"/>
</g>
<path d="M243.41 331.79L287.64 331.02C288.769 331.001 289.882 330.741 290.902 330.258C291.923 329.774 292.829 329.079 293.56 328.218C294.291 327.356 294.829 326.349 295.14 325.263C295.45 324.177 295.525 323.037 295.36 321.92L291 292.16C290.873 291.317 290.452 290.545 289.812 289.982C289.171 289.418 288.353 289.099 287.5 289.08C279.83 288.9 272.14 288.77 266.03 288.77C263.03 288.77 260.5 288.77 258.47 288.87C254.47 289.01 248.16 289.46 240.77 290.08C239.91 290.15 239.103 290.527 238.497 291.142C237.892 291.757 237.527 292.569 237.47 293.43L235.4 323.3C235.324 324.394 235.475 325.492 235.845 326.524C236.214 327.557 236.793 328.502 237.546 329.299C238.298 330.097 239.208 330.73 240.217 331.159C241.226 331.587 242.313 331.802 243.41 331.79Z" fill="#263238"/>
<path d="M332.16 324.83L318.16 292.03C317.898 291.41 317.465 290.878 316.91 290.497C316.355 290.116 315.703 289.902 315.03 289.88C312.58 289.8 309.46 289.69 305.94 289.59C305.411 289.572 304.885 289.671 304.399 289.88C303.912 290.088 303.478 290.401 303.126 290.796C302.774 291.191 302.513 291.659 302.361 292.166C302.21 292.673 302.172 293.207 302.25 293.73L306.7 323.73C306.996 325.632 307.968 327.364 309.437 328.607C310.907 329.851 312.775 330.523 314.7 330.5L328.34 330.27C329.243 330.276 330.123 329.986 330.846 329.444C331.568 328.902 332.093 328.139 332.34 327.27C332.536 326.458 332.473 325.605 332.16 324.83Z" fill="#263238"/>
<path d="M222.3 291.73C206.1 293.25 189.66 294.95 182.66 295.73C180.394 295.965 178.265 296.926 176.59 298.47L152.06 321C151.01 321.976 150.282 323.248 149.969 324.647C149.657 326.046 149.777 327.507 150.312 328.837C150.847 330.167 151.772 331.303 152.966 332.097C154.16 332.89 155.567 333.302 157 333.28L216.45 332.28C218.437 332.247 220.339 331.469 221.78 330.101C223.22 328.732 224.095 326.873 224.23 324.89L226.23 295.6C226.27 295.076 226.195 294.55 226.011 294.059C225.827 293.567 225.538 293.121 225.163 292.753C224.789 292.384 224.339 292.102 223.845 291.925C223.35 291.749 222.823 291.682 222.3 291.73Z" fill="#263238"/>
<path d="M290.18 339.53L279.85 339.73C279.457 339.738 279.084 339.899 278.809 340.18C278.534 340.46 278.38 340.837 278.38 341.23C278.38 341.43 278.42 341.627 278.497 341.811C278.574 341.995 278.687 342.162 278.83 342.301C278.972 342.441 279.141 342.551 279.327 342.625C279.512 342.698 279.711 342.734 279.91 342.73L290.24 342.53C290.633 342.522 291.006 342.361 291.281 342.08C291.556 341.8 291.71 341.423 291.71 341.03C291.71 340.83 291.67 340.633 291.593 340.449C291.516 340.265 291.403 340.098 291.26 339.959C291.118 339.819 290.949 339.709 290.763 339.635C290.578 339.562 290.379 339.526 290.18 339.53Z" fill="#263238"/>
<path d="M217.71 342.46C217.71 342.26 217.67 342.063 217.593 341.879C217.516 341.695 217.403 341.528 217.26 341.389C217.118 341.249 216.949 341.139 216.763 341.065C216.578 340.992 216.379 340.956 216.18 340.96L205.85 341.16C205.457 341.168 205.084 341.329 204.809 341.61C204.534 341.89 204.38 342.267 204.38 342.66C204.38 342.86 204.42 343.057 204.497 343.241C204.574 343.425 204.687 343.592 204.83 343.731C204.972 343.871 205.141 343.981 205.327 344.055C205.512 344.128 205.711 344.164 205.91 344.16L216.24 343.96C216.633 343.955 217.009 343.794 217.284 343.513C217.56 343.232 217.713 342.853 217.71 342.46Z" fill="#263238"/>
<g opacity="0.2">
<path d="M85.74 385.57C86.8416 383.223 88.2764 381.047 90 379.11L77.49 379.35C76.6454 379.362 75.817 379.118 75.115 378.648C74.4129 378.178 73.8706 377.506 73.56 376.72C73.2519 378.067 73.1775 379.457 73.34 380.83L74.15 387.45C74.5341 390.588 76.1181 393.455 78.57 395.45L79.09 395.87C80.8895 397.339 83.0723 398.262 85.38 398.53C85 394.41 84.7 388.09 85.74 385.57Z" fill="black"/>
<path d="M287.64 400.76C287.33 396.65 287.12 390.98 288.09 388.61C289.7 384.67 294.78 378.84 299.52 375.04L134.16 378.25C136.308 381.454 138.061 384.905 139.38 388.53C140.06 390.67 139.86 395.81 139.64 399.2L287.64 400.76Z" fill="black"/>
<path d="M341.73 391.58C342.176 393.794 342.324 396.057 342.17 398.31C343.306 397.475 344.316 396.481 345.17 395.36L346.56 393.48C348.418 390.979 349.421 387.946 349.42 384.83V380C349.419 377.338 348.689 374.727 347.31 372.45L346 370.34C345.934 371.368 345.487 372.334 344.748 373.051C344.009 373.768 343.029 374.185 342 374.22L331.11 374.43C335.749 379.388 339.359 385.217 341.73 391.58Z" fill="black"/>
</g>
<g opacity="0.2">
<path d="M148.71 386.76C148.71 386.23 148.921 385.721 149.296 385.346C149.671 384.971 150.18 384.76 150.71 384.76L278 382.25C278.53 382.25 279.039 382.461 279.414 382.836C279.789 383.211 280 383.72 280 384.25C280 384.78 279.789 385.289 279.414 385.664C279.039 386.039 278.53 386.25 278 386.25L150.65 388.72C150.137 388.705 149.649 388.493 149.288 388.128C148.927 387.763 148.72 387.273 148.71 386.76Z" fill="white"/>
</g>
<path opacity="0.6" d="M159.05 314.54L152.05 320.96C150.985 321.934 150.243 323.21 149.922 324.617C149.601 326.024 149.718 327.496 150.256 328.835C150.794 330.174 151.728 331.318 152.933 332.112C154.138 332.906 155.557 333.314 157 333.28H159.07L159.05 314.54Z" fill="black"/>
<path d="M168.61 316.21H165.08C164.231 316.21 163.417 316.547 162.817 317.147C162.217 317.747 161.88 318.561 161.88 319.41V324.33L156 325.47C155.644 325.538 155.324 325.728 155.093 326.007C154.863 326.287 154.738 326.638 154.74 327V328.39C154.739 328.644 154.799 328.894 154.917 329.118C155.035 329.343 155.206 329.535 155.415 329.678C155.624 329.821 155.865 329.911 156.117 329.939C156.369 329.967 156.624 329.933 156.86 329.84L162.47 327.67C162.826 328.203 163.334 328.616 163.928 328.857C164.521 329.097 165.174 329.154 165.8 329.02L169.13 328.28C169.634 328.165 170.083 327.883 170.407 327.48C170.73 327.077 170.907 326.577 170.91 326.06V318.48C170.91 318.179 170.85 317.882 170.734 317.604C170.618 317.327 170.449 317.075 170.235 316.864C170.021 316.653 169.767 316.486 169.488 316.374C169.209 316.262 168.911 316.206 168.61 316.21Z" fill="#05577D"/>
</svg>
